<svg width="103" height="149" viewBox="0 0 103 149" fill="none" xmlns="http://www.w3.org/2000/svg">
<path d="M16.48 82.7778V115.889H0V132.444H24.72V149H41.2V132.444H57.68V149H74.16V132.022C90.3763 129.961 103 116.17 103 99.3333C103 88.4067 97.644 78.7713 89.4864 72.7368C95.5028 66.5784 98.8754 58.2955 98.88 49.6667C98.88 34.2866 88.341 21.4312 74.16 17.731V0H57.68V16.5556H41.2V0H24.72V16.5556H0V33.1111H16.48V82.7778ZM70.04 115.889H32.96V82.7778H70.04C79.1287 82.7778 86.52 90.2029 86.52 99.3333C86.52 108.464 79.1287 115.889 70.04 115.889ZM32.96 33.1111H65.92C75.0087 33.1111 82.4 40.5363 82.4 49.6667C82.4 58.7971 75.0087 66.2222 65.92 66.2222H32.96V33.1111Z" fill="white"/>
</svg>
