<svg width="344" height="246" viewBox="0 0 344 246" fill="none" xmlns="http://www.w3.org/2000/svg">
<g opacity="0.5" filter="url(#filter0_f_34_326)">
<rect x="56" y="87" width="232" height="103" rx="20" fill="#196637"/>
</g>
<g clip-path="url(#clip0_34_326)">
<rect x="25" width="294" height="189" rx="20" fill="url(#paint0_linear_34_326)"/>
<circle cx="292.5" cy="94.5" r="68.5" fill="url(#paint1_radial_34_326)"/>
<g filter="url(#filter1_d_34_326)">
<circle cx="291.5" cy="95.5" r="35.5" fill="white"/>
</g>
<path fill-rule="evenodd" clip-rule="evenodd" d="M235.189 190C242.81 170.817 247 149.898 247 128C247 76.1674 223.527 29.8174 186.631 -1H-11C-22.0457 -1 -31 7.95431 -31 19V170C-31 181.046 -22.0457 190 -11 190H235.189Z" fill="white" fill-opacity="0.1"/>
<path fill-rule="evenodd" clip-rule="evenodd" d="M204.44 190C210.631 172.484 214 153.636 214 134C214 78.6839 187.266 29.6119 146.013 -1L-23 -1C-34.0457 -1 -43 7.95431 -43 19V170C-43 181.046 -34.0457 190 -23 190H204.44Z" fill="white" fill-opacity="0.1"/>
<path d="M65.34 84L61.398 76.845H60.291V84H55.674V65.046H63.423C64.917 65.046 66.186 65.307 67.23 65.829C68.292 66.351 69.084 67.071 69.606 67.989C70.128 68.889 70.389 69.897 70.389 71.013C70.389 72.273 70.029 73.398 69.309 74.388C68.607 75.378 67.563 76.08 66.177 76.494L70.551 84H65.34ZM60.291 73.578H63.153C63.999 73.578 64.629 73.371 65.043 72.957C65.475 72.543 65.691 71.958 65.691 71.202C65.691 70.482 65.475 69.915 65.043 69.501C64.629 69.087 63.999 68.88 63.153 68.88H60.291V73.578ZM87.6243 78.492C87.6243 79.482 87.3633 80.4 86.8413 81.246C86.3373 82.074 85.5813 82.758 84.5733 83.298C83.5833 83.82 82.4043 84.108 81.0363 84.162V86.349H79.3083V84.135C77.4003 83.973 75.8613 83.406 74.6913 82.434C73.5213 81.444 72.9003 80.103 72.8283 78.411H77.7423C77.8503 79.491 78.3723 80.184 79.3083 80.49V76.224C77.9043 75.864 76.7793 75.513 75.9333 75.171C75.1053 74.829 74.3763 74.28 73.7463 73.524C73.1163 72.768 72.8013 71.733 72.8013 70.419C72.8013 68.781 73.4043 67.467 74.6103 66.477C75.8343 65.487 77.4003 64.929 79.3083 64.803V62.616H81.0363V64.803C82.9263 64.947 84.4203 65.496 85.5183 66.45C86.6163 67.404 87.2283 68.727 87.3543 70.419H82.4133C82.3053 69.447 81.8463 68.817 81.0363 68.529V72.714C82.5303 73.128 83.6823 73.497 84.4923 73.821C85.3023 74.145 86.0223 74.685 86.6523 75.441C87.3003 76.179 87.6243 77.196 87.6243 78.492ZM77.6883 70.203C77.6883 70.653 77.8233 71.031 78.0933 71.337C78.3813 71.643 78.7863 71.913 79.3083 72.147V68.394C78.8043 68.484 78.4083 68.682 78.1203 68.988C77.8323 69.276 77.6883 69.681 77.6883 70.203ZM81.0363 80.571C81.5763 80.481 81.9993 80.265 82.3053 79.923C82.6293 79.581 82.7913 79.158 82.7913 78.654C82.7913 78.186 82.6383 77.808 82.3323 77.52C82.0443 77.214 81.6123 76.953 81.0363 76.737V80.571ZM93.8398 73.416C92.1478 72.516 91.3018 71.103 91.3018 69.177C91.3018 68.205 91.5538 67.323 92.0578 66.531C92.5618 65.721 93.3268 65.082 94.3528 64.614C95.3788 64.128 96.6388 63.885 98.1328 63.885C99.6268 63.885 100.878 64.128 101.886 64.614C102.912 65.082 103.677 65.721 104.181 66.531C104.685 67.323 104.937 68.205 104.937 69.177C104.937 70.149 104.703 70.995 104.235 71.715C103.785 72.435 103.173 73.002 102.399 73.416C103.371 73.884 104.118 74.532 104.64 75.36C105.162 76.17 105.423 77.124 105.423 78.222C105.423 79.5 105.099 80.607 104.451 81.543C103.803 82.461 102.921 83.163 101.805 83.649C100.707 84.135 99.4828 84.378 98.1328 84.378C96.7828 84.378 95.5498 84.135 94.4338 83.649C93.3358 83.163 92.4628 82.461 91.8148 81.543C91.1668 80.607 90.8428 79.5 90.8428 78.222C90.8428 77.106 91.1038 76.143 91.6258 75.333C92.1478 74.505 92.8858 73.866 93.8398 73.416ZM100.455 69.879C100.455 69.141 100.239 68.574 99.8068 68.178C99.3928 67.764 98.8348 67.557 98.1328 67.557C97.4308 67.557 96.8638 67.764 96.4318 68.178C96.0178 68.592 95.8108 69.168 95.8108 69.906C95.8108 70.608 96.0268 71.166 96.4588 71.58C96.8908 71.976 97.4488 72.174 98.1328 72.174C98.8168 72.174 99.3748 71.967 99.8068 71.553C100.239 71.139 100.455 70.581 100.455 69.879ZM98.1328 75.414C97.2868 75.414 96.6028 75.648 96.0808 76.116C95.5588 76.566 95.2978 77.196 95.2978 78.006C95.2978 78.762 95.5498 79.383 96.0538 79.869C96.5758 80.355 97.2688 80.598 98.1328 80.598C98.9968 80.598 99.6718 80.355 100.158 79.869C100.662 79.383 100.914 78.762 100.914 78.006C100.914 77.214 100.653 76.584 100.131 76.116C99.6268 75.648 98.9608 75.414 98.1328 75.414ZM113.535 79.734L110.538 87.483H107.595L109.161 79.734H113.535ZM129.738 68.313H121.314V72.039C121.674 71.643 122.178 71.319 122.826 71.067C123.474 70.815 124.176 70.689 124.932 70.689C126.282 70.689 127.398 70.995 128.28 71.607C129.18 72.219 129.837 73.011 130.251 73.983C130.665 74.955 130.872 76.008 130.872 77.142C130.872 79.248 130.278 80.922 129.09 82.164C127.902 83.388 126.228 84 124.068 84C122.628 84 121.377 83.757 120.315 83.271C119.253 82.767 118.434 82.074 117.858 81.192C117.282 80.31 116.967 79.293 116.913 78.141H121.422C121.53 78.699 121.791 79.167 122.205 79.545C122.619 79.905 123.186 80.085 123.906 80.085C124.752 80.085 125.382 79.815 125.796 79.275C126.21 78.735 126.417 78.015 126.417 77.115C126.417 76.233 126.201 75.558 125.769 75.09C125.337 74.622 124.707 74.388 123.879 74.388C123.267 74.388 122.763 74.541 122.367 74.847C121.971 75.135 121.71 75.522 121.584 76.008H117.129V64.263H129.738V68.313ZM133.528 80.49V76.764L142.06 64.56H147.217V76.494H149.431V80.49H147.217V84H142.6V80.49H133.528ZM142.924 69.636L138.388 76.494H142.924V69.636ZM151.693 73.875C151.693 70.779 152.287 68.34 153.475 66.558C154.681 64.776 156.616 63.885 159.28 63.885C161.944 63.885 163.87 64.776 165.058 66.558C166.264 68.34 166.867 70.779 166.867 73.875C166.867 77.007 166.264 79.464 165.058 81.246C163.87 83.028 161.944 83.919 159.28 83.919C156.616 83.919 154.681 83.028 153.475 81.246C152.287 79.464 151.693 77.007 151.693 73.875ZM162.331 73.875C162.331 72.057 162.133 70.662 161.737 69.69C161.341 68.7 160.522 68.205 159.28 68.205C158.038 68.205 157.219 68.7 156.823 69.69C156.427 70.662 156.229 72.057 156.229 73.875C156.229 75.099 156.301 76.116 156.445 76.926C156.589 77.718 156.877 78.366 157.309 78.87C157.759 79.356 158.416 79.599 159.28 79.599C160.144 79.599 160.792 79.356 161.224 78.87C161.674 78.366 161.971 77.718 162.115 76.926C162.259 76.116 162.331 75.099 162.331 73.875ZM171.925 84.216C171.115 84.216 170.449 83.982 169.927 83.514C169.423 83.028 169.171 82.434 169.171 81.732C169.171 81.012 169.423 80.409 169.927 79.923C170.449 79.437 171.115 79.194 171.925 79.194C172.717 79.194 173.365 79.437 173.869 79.923C174.391 80.409 174.652 81.012 174.652 81.732C174.652 82.434 174.391 83.028 173.869 83.514C173.365 83.982 172.717 84.216 171.925 84.216ZM176.764 80.301C177.376 79.815 177.655 79.59 177.601 79.626C179.365 78.168 180.751 76.971 181.759 76.035C182.785 75.099 183.649 74.118 184.351 73.092C185.053 72.066 185.404 71.067 185.404 70.095C185.404 69.357 185.233 68.781 184.891 68.367C184.549 67.953 184.036 67.746 183.352 67.746C182.668 67.746 182.128 68.007 181.732 68.529C181.354 69.033 181.165 69.753 181.165 70.689H176.71C176.746 69.159 177.07 67.881 177.682 66.855C178.312 65.829 179.131 65.073 180.139 64.587C181.165 64.101 182.299 63.858 183.541 63.858C185.683 63.858 187.294 64.407 188.374 65.505C189.472 66.603 190.021 68.034 190.021 69.798C190.021 71.724 189.364 73.515 188.05 75.171C186.736 76.809 185.062 78.411 183.028 79.977H190.318V83.73H176.764V80.301ZM191.865 68.583V64.29H199.344V84H194.538V68.583H191.865Z" fill="#1D2027"/>
<path d="M58.24 122.8V134H56.656V124.192H54.128V122.8H58.24ZM68.5619 132.608V134H60.5139V132.912L65.0739 128.512C65.6285 127.979 66.0019 127.52 66.1939 127.136C66.3859 126.741 66.4819 126.347 66.4819 125.952C66.4819 125.365 66.2739 124.912 65.8579 124.592C65.4525 124.261 64.8659 124.096 64.0979 124.096C62.8605 124.096 61.9059 124.501 61.2339 125.312L60.1459 124.368C60.5832 123.835 61.1539 123.419 61.8579 123.12C62.5725 122.821 63.3672 122.672 64.2419 122.672C65.4152 122.672 66.3485 122.955 67.0419 123.52C67.7352 124.075 68.0819 124.832 68.0819 125.792C68.0819 126.389 67.9539 126.955 67.6979 127.488C67.4419 128.021 66.9565 128.629 66.2419 129.312L62.8179 132.608H68.5619ZM73.3494 122.8V134H71.7654V124.192H69.2374V122.8H73.3494ZM80.0873 127.504C81.1859 127.611 82.0233 127.952 82.5993 128.528C83.1753 129.093 83.4633 129.819 83.4633 130.704C83.4633 131.344 83.3033 131.925 82.9833 132.448C82.6633 132.96 82.1833 133.371 81.5433 133.68C80.9139 133.979 80.1406 134.128 79.2233 134.128C78.4233 134.128 77.6553 134.011 76.9193 133.776C76.1833 133.531 75.5806 133.195 75.1113 132.768L75.8473 131.504C76.2313 131.867 76.7219 132.16 77.3193 132.384C77.9166 132.597 78.5513 132.704 79.2233 132.704C80.0553 132.704 80.7006 132.528 81.1593 132.176C81.6286 131.824 81.8633 131.339 81.8633 130.72C81.8633 130.101 81.6339 129.621 81.1753 129.28C80.7166 128.939 80.0233 128.768 79.0953 128.768H78.1993V127.648L81.0153 124.192H75.6233V122.8H83.0153V123.888L80.0873 127.504ZM93.5404 127.504C94.639 127.611 95.4764 127.952 96.0524 128.528C96.6284 129.093 96.9164 129.819 96.9164 130.704C96.9164 131.344 96.7564 131.925 96.4364 132.448C96.1164 132.96 95.6364 133.371 94.9964 133.68C94.367 133.979 93.5937 134.128 92.6764 134.128C91.8764 134.128 91.1084 134.011 90.3724 133.776C89.6364 133.531 89.0337 133.195 88.5644 132.768L89.3004 131.504C89.6844 131.867 90.175 132.16 90.7724 132.384C91.3697 132.597 92.0044 132.704 92.6764 132.704C93.5084 132.704 94.1537 132.528 94.6124 132.176C95.0817 131.824 95.3164 131.339 95.3164 130.72C95.3164 130.101 95.087 129.621 94.6284 129.28C94.1697 128.939 93.4764 128.768 92.5484 128.768H91.6524V127.648L94.4684 124.192H89.0764V122.8H96.4684V123.888L93.5404 127.504ZM105.257 128.128C105.897 128.373 106.387 128.725 106.729 129.184C107.07 129.643 107.241 130.192 107.241 130.832C107.241 131.504 107.059 132.091 106.697 132.592C106.334 133.083 105.817 133.461 105.145 133.728C104.473 133.995 103.683 134.128 102.777 134.128C101.881 134.128 101.097 133.995 100.425 133.728C99.7633 133.461 99.2513 133.083 98.8886 132.592C98.526 132.091 98.3446 131.504 98.3446 130.832C98.3446 130.192 98.51 129.643 98.8406 129.184C99.182 128.725 99.6726 128.373 100.313 128.128C99.8006 127.883 99.4113 127.557 99.1446 127.152C98.878 126.747 98.7446 126.267 98.7446 125.712C98.7446 125.093 98.91 124.555 99.2406 124.096C99.582 123.637 100.057 123.285 100.665 123.04C101.273 122.795 101.977 122.672 102.777 122.672C103.587 122.672 104.297 122.795 104.905 123.04C105.523 123.285 105.998 123.637 106.329 124.096C106.67 124.555 106.841 125.093 106.841 125.712C106.841 126.256 106.702 126.736 106.425 127.152C106.158 127.557 105.769 127.883 105.257 128.128ZM102.777 123.968C102.019 123.968 101.422 124.133 100.985 124.464C100.547 124.784 100.329 125.221 100.329 125.776C100.329 126.331 100.542 126.768 100.969 127.088C101.406 127.408 102.009 127.568 102.777 127.568C103.555 127.568 104.163 127.408 104.601 127.088C105.049 126.768 105.273 126.331 105.273 125.776C105.273 125.221 105.043 124.784 104.585 124.464C104.137 124.133 103.534 123.968 102.777 123.968ZM102.777 132.832C103.662 132.832 104.361 132.651 104.873 132.288C105.385 131.915 105.641 131.413 105.641 130.784C105.641 130.165 105.385 129.68 104.873 129.328C104.361 128.965 103.662 128.784 102.777 128.784C101.891 128.784 101.198 128.965 100.697 129.328C100.195 129.68 99.9446 130.165 99.9446 130.784C99.9446 131.413 100.195 131.915 100.697 132.288C101.198 132.651 101.891 132.832 102.777 132.832ZM116.578 132.608V134H108.53V132.912L113.09 128.512C113.644 127.979 114.018 127.52 114.21 127.136C114.402 126.741 114.498 126.347 114.498 125.952C114.498 125.365 114.29 124.912 113.874 124.592C113.468 124.261 112.882 124.096 112.114 124.096C110.876 124.096 109.922 124.501 109.25 125.312L108.162 124.368C108.599 123.835 109.17 123.419 109.874 123.12C110.588 122.821 111.383 122.672 112.258 122.672C113.431 122.672 114.364 122.955 115.058 123.52C115.751 124.075 116.098 124.832 116.098 125.792C116.098 126.389 115.97 126.955 115.714 127.488C115.458 128.021 114.972 128.629 114.258 129.312L110.834 132.608H116.578ZM122.181 127.504C123.28 127.611 124.117 127.952 124.693 128.528C125.269 129.093 125.557 129.819 125.557 130.704C125.557 131.344 125.397 131.925 125.077 132.448C124.757 132.96 124.277 133.371 123.637 133.68C123.008 133.979 122.234 134.128 121.317 134.128C120.517 134.128 119.749 134.011 119.013 133.776C118.277 133.531 117.674 133.195 117.205 132.768L117.941 131.504C118.325 131.867 118.816 132.16 119.413 132.384C120.01 132.597 120.645 132.704 121.317 132.704C122.149 132.704 122.794 132.528 123.253 132.176C123.722 131.824 123.957 131.339 123.957 130.72C123.957 130.101 123.728 129.621 123.269 129.28C122.81 128.939 122.117 128.768 121.189 128.768H120.293V127.648L123.109 124.192H117.717V122.8H125.109V123.888L122.181 127.504ZM134.978 122.672C136.482 122.672 137.639 123.157 138.45 124.128C139.271 125.099 139.682 126.475 139.682 128.256C139.682 129.504 139.458 130.571 139.01 131.456C138.573 132.331 137.954 132.997 137.154 133.456C136.365 133.904 135.442 134.128 134.386 134.128C133.842 134.128 133.33 134.075 132.85 133.968C132.37 133.851 131.954 133.685 131.602 133.472L132.21 132.224C132.754 132.576 133.474 132.752 134.37 132.752C135.533 132.752 136.439 132.395 137.09 131.68C137.751 130.955 138.082 129.904 138.082 128.528V128.128C137.762 128.608 137.319 128.976 136.754 129.232C136.189 129.477 135.554 129.6 134.85 129.6C134.114 129.6 133.453 129.461 132.866 129.184C132.29 128.907 131.837 128.512 131.506 128C131.186 127.477 131.026 126.88 131.026 126.208C131.026 125.504 131.197 124.885 131.538 124.352C131.89 123.819 132.365 123.408 132.962 123.12C133.559 122.821 134.231 122.672 134.978 122.672ZM135.122 128.304C135.623 128.304 136.071 128.208 136.466 128.016C136.861 127.824 137.165 127.563 137.378 127.232C137.602 126.901 137.714 126.533 137.714 126.128C137.714 125.733 137.607 125.376 137.394 125.056C137.191 124.725 136.887 124.464 136.482 124.272C136.087 124.069 135.607 123.968 135.042 123.968C134.306 123.968 133.709 124.165 133.25 124.56C132.802 124.955 132.578 125.483 132.578 126.144C132.578 126.805 132.807 127.333 133.266 127.728C133.725 128.112 134.343 128.304 135.122 128.304ZM149.046 132.608V134H140.998V132.912L145.558 128.512C146.113 127.979 146.486 127.52 146.678 127.136C146.87 126.741 146.966 126.347 146.966 125.952C146.966 125.365 146.758 124.912 146.342 124.592C145.937 124.261 145.35 124.096 144.582 124.096C143.345 124.096 142.39 124.501 141.718 125.312L140.63 124.368C141.068 123.835 141.638 123.419 142.342 123.12C143.057 122.821 143.852 122.672 144.726 122.672C145.9 122.672 146.833 122.955 147.526 123.52C148.22 124.075 148.566 124.832 148.566 125.792C148.566 126.389 148.438 126.955 148.182 127.488C147.926 128.021 147.441 128.629 146.726 129.312L143.302 132.608H149.046ZM153.994 122.672C155.498 122.672 156.655 123.157 157.466 124.128C158.287 125.099 158.698 126.475 158.698 128.256C158.698 129.504 158.474 130.571 158.026 131.456C157.588 132.331 156.97 132.997 156.17 133.456C155.38 133.904 154.458 134.128 153.402 134.128C152.858 134.128 152.346 134.075 151.866 133.968C151.386 133.851 150.97 133.685 150.618 133.472L151.226 132.224C151.77 132.576 152.49 132.752 153.386 132.752C154.548 132.752 155.455 132.395 156.106 131.68C156.767 130.955 157.098 129.904 157.098 128.528V128.128C156.778 128.608 156.335 128.976 155.77 129.232C155.204 129.477 154.57 129.6 153.866 129.6C153.13 129.6 152.468 129.461 151.882 129.184C151.306 128.907 150.852 128.512 150.522 128C150.202 127.477 150.042 126.88 150.042 126.208C150.042 125.504 150.212 124.885 150.554 124.352C150.906 123.819 151.38 123.408 151.978 123.12C152.575 122.821 153.247 122.672 153.994 122.672ZM154.138 128.304C154.639 128.304 155.087 128.208 155.482 128.016C155.876 127.824 156.18 127.563 156.394 127.232C156.618 126.901 156.73 126.533 156.73 126.128C156.73 125.733 156.623 125.376 156.41 125.056C156.207 124.725 155.903 124.464 155.498 124.272C155.103 124.069 154.623 123.968 154.058 123.968C153.322 123.968 152.724 124.165 152.266 124.56C151.818 124.955 151.594 125.483 151.594 126.144C151.594 126.805 151.823 127.333 152.282 127.728C152.74 128.112 153.359 128.304 154.138 128.304ZM164.369 127.504C165.467 127.611 166.305 127.952 166.881 128.528C167.457 129.093 167.745 129.819 167.745 130.704C167.745 131.344 167.585 131.925 167.265 132.448C166.945 132.96 166.465 133.371 165.825 133.68C165.195 133.979 164.422 134.128 163.505 134.128C162.705 134.128 161.937 134.011 161.201 133.776C160.465 133.531 159.862 133.195 159.393 132.768L160.129 131.504C160.513 131.867 161.003 132.16 161.601 132.384C162.198 132.597 162.833 132.704 163.505 132.704C164.337 132.704 164.982 132.528 165.441 132.176C165.91 131.824 166.145 131.339 166.145 130.72C166.145 130.101 165.915 129.621 165.457 129.28C164.998 128.939 164.305 128.768 163.377 128.768H162.481V127.648L165.297 124.192H159.905V122.8H167.297V123.888L164.369 127.504ZM177.166 122.672C178.67 122.672 179.827 123.157 180.638 124.128C181.459 125.099 181.87 126.475 181.87 128.256C181.87 129.504 181.646 130.571 181.198 131.456C180.76 132.331 180.142 132.997 179.342 133.456C178.552 133.904 177.63 134.128 176.574 134.128C176.03 134.128 175.518 134.075 175.038 133.968C174.558 133.851 174.142 133.685 173.79 133.472L174.398 132.224C174.942 132.576 175.662 132.752 176.558 132.752C177.72 132.752 178.627 132.395 179.278 131.68C179.939 130.955 180.27 129.904 180.27 128.528V128.128C179.95 128.608 179.507 128.976 178.942 129.232C178.376 129.477 177.742 129.6 177.038 129.6C176.302 129.6 175.64 129.461 175.054 129.184C174.478 128.907 174.024 128.512 173.694 128C173.374 127.477 173.214 126.88 173.214 126.208C173.214 125.504 173.384 124.885 173.726 124.352C174.078 123.819 174.552 123.408 175.15 123.12C175.747 122.821 176.419 122.672 177.166 122.672ZM177.31 128.304C177.811 128.304 178.259 128.208 178.654 128.016C179.048 127.824 179.352 127.563 179.566 127.232C179.79 126.901 179.902 126.533 179.902 126.128C179.902 125.733 179.795 125.376 179.582 125.056C179.379 124.725 179.075 124.464 178.67 124.272C178.275 124.069 177.795 123.968 177.23 123.968C176.494 123.968 175.896 124.165 175.438 124.56C174.99 124.955 174.766 125.483 174.766 126.144C174.766 126.805 174.995 127.333 175.454 127.728C175.912 128.112 176.531 128.304 177.31 128.304ZM186.834 122.8V134H185.25V124.192H182.722V122.8H186.834ZM193.572 127.504C194.67 127.611 195.508 127.952 196.084 128.528C196.66 129.093 196.948 129.819 196.948 130.704C196.948 131.344 196.788 131.925 196.468 132.448C196.148 132.96 195.668 133.371 195.028 133.68C194.398 133.979 193.625 134.128 192.708 134.128C191.908 134.128 191.14 134.011 190.404 133.776C189.668 133.531 189.065 133.195 188.596 132.768L189.332 131.504C189.716 131.867 190.206 132.16 190.804 132.384C191.401 132.597 192.036 132.704 192.708 132.704C193.54 132.704 194.185 132.528 194.644 132.176C195.113 131.824 195.348 131.339 195.348 130.72C195.348 130.101 195.118 129.621 194.66 129.28C194.201 128.939 193.508 128.768 192.58 128.768H191.684V127.648L194.5 124.192H189.108V122.8H196.5V123.888L193.572 127.504ZM206.412 122.8V123.888L201.884 134H200.188L204.62 124.192H199.5V126.192H197.964V122.8H206.412Z" fill="#1D2027"/>
<path d="M57.192 157L54.384 148.6H55.62L58.2 156.352H57.576L60.252 148.6H61.356L63.972 156.352H63.372L65.988 148.6H67.128L64.32 157H63.06L60.612 149.812H60.936L58.476 157H57.192ZM68.4279 157V150.64H69.5799V157H68.4279ZM69.0039 149.416C68.7799 149.416 68.5919 149.344 68.4399 149.2C68.2959 149.056 68.2239 148.88 68.2239 148.672C68.2239 148.456 68.2959 148.276 68.4399 148.132C68.5919 147.988 68.7799 147.916 69.0039 147.916C69.2279 147.916 69.4119 147.988 69.5559 148.132C69.7079 148.268 69.7839 148.44 69.7839 148.648C69.7839 148.864 69.7119 149.048 69.5679 149.2C69.4239 149.344 69.2359 149.416 69.0039 149.416ZM71.7795 157V148.096H72.9315V157H71.7795ZM75.1311 157V148.096H76.2831V157H75.1311ZM78.4826 157V150.64H79.6346V157H78.4826ZM79.0586 149.416C78.8346 149.416 78.6466 149.344 78.4946 149.2C78.3506 149.056 78.2786 148.88 78.2786 148.672C78.2786 148.456 78.3506 148.276 78.4946 148.132C78.6466 147.988 78.8346 147.916 79.0586 147.916C79.2826 147.916 79.4666 147.988 79.6106 148.132C79.7626 148.268 79.8386 148.44 79.8386 148.648C79.8386 148.864 79.7666 149.048 79.6226 149.2C79.4786 149.344 79.2906 149.416 79.0586 149.416ZM85.7822 157V155.656L85.7222 155.404V153.112C85.7222 152.624 85.5782 152.248 85.2902 151.984C85.0102 151.712 84.5862 151.576 84.0182 151.576C83.6422 151.576 83.2742 151.64 82.9142 151.768C82.5542 151.888 82.2502 152.052 82.0022 152.26L81.5222 151.396C81.8502 151.132 82.2422 150.932 82.6982 150.796C83.1622 150.652 83.6462 150.58 84.1502 150.58C85.0222 150.58 85.6942 150.792 86.1662 151.216C86.6382 151.64 86.8742 152.288 86.8742 153.16V157H85.7822ZM83.6942 157.072C83.2222 157.072 82.8062 156.992 82.4462 156.832C82.0942 156.672 81.8222 156.452 81.6302 156.172C81.4382 155.884 81.3422 155.56 81.3422 155.2C81.3422 154.856 81.4222 154.544 81.5822 154.264C81.7502 153.984 82.0182 153.76 82.3862 153.592C82.7622 153.424 83.2662 153.34 83.8982 153.34H85.9142V154.168H83.9462C83.3702 154.168 82.9822 154.264 82.7822 154.456C82.5822 154.648 82.4822 154.88 82.4822 155.152C82.4822 155.464 82.6062 155.716 82.8542 155.908C83.1022 156.092 83.4462 156.184 83.8862 156.184C84.3182 156.184 84.6942 156.088 85.0142 155.896C85.3422 155.704 85.5782 155.424 85.7222 155.056L85.9502 155.848C85.7982 156.224 85.5302 156.524 85.1462 156.748C84.7622 156.964 84.2782 157.072 83.6942 157.072ZM92.4021 150.58C92.9221 150.58 93.3781 150.68 93.7701 150.88C94.1701 151.08 94.4821 151.384 94.7061 151.792C94.9301 152.2 95.0421 152.716 95.0421 153.34V157H93.8901V153.472C93.8901 152.856 93.7381 152.392 93.4341 152.08C93.1381 151.768 92.7181 151.612 92.1741 151.612C91.7661 151.612 91.4101 151.692 91.1061 151.852C90.8021 152.012 90.5661 152.248 90.3981 152.56C90.2381 152.872 90.1581 153.26 90.1581 153.724V157H89.0061V150.64H90.1101V152.356L89.9301 151.9C90.1381 151.484 90.4581 151.16 90.8901 150.928C91.3221 150.696 91.8261 150.58 92.4021 150.58ZM100.565 157V148.6H103.841C104.577 148.6 105.205 148.716 105.725 148.948C106.245 149.18 106.645 149.516 106.925 149.956C107.205 150.396 107.345 150.92 107.345 151.528C107.345 152.136 107.205 152.66 106.925 153.1C106.645 153.532 106.245 153.864 105.725 154.096C105.205 154.328 104.577 154.444 103.841 154.444H101.225L101.765 153.892V157H100.565ZM106.181 157L104.045 153.952H105.329L107.489 157H106.181ZM101.765 154.012L101.225 153.424H103.805C104.573 153.424 105.153 153.26 105.545 152.932C105.945 152.596 106.145 152.128 106.145 151.528C106.145 150.928 105.945 150.464 105.545 150.136C105.153 149.808 104.573 149.644 103.805 149.644H101.225L101.765 149.044V154.012ZM109.115 157V150.64H110.267V157H109.115ZM109.691 149.416C109.467 149.416 109.279 149.344 109.127 149.2C108.983 149.056 108.911 148.88 108.911 148.672C108.911 148.456 108.983 148.276 109.127 148.132C109.279 147.988 109.467 147.916 109.691 147.916C109.915 147.916 110.099 147.988 110.243 148.132C110.395 148.268 110.471 148.44 110.471 148.648C110.471 148.864 110.399 149.048 110.255 149.2C110.111 149.344 109.923 149.416 109.691 149.416ZM111.855 157V156.256L115.935 151.192L116.163 151.588H111.927V150.64H117.087V151.396L113.007 156.448L112.743 156.052H117.183V157H111.855ZM118.113 157V156.256L122.193 151.192L122.421 151.588H118.185V150.64H123.345V151.396L119.265 156.448L119.001 156.052H123.441V157H118.113ZM127.613 157.072C126.973 157.072 126.405 156.932 125.909 156.652C125.413 156.372 125.021 155.988 124.733 155.5C124.445 155.004 124.301 154.444 124.301 153.82C124.301 153.188 124.445 152.628 124.733 152.14C125.021 151.652 125.413 151.272 125.909 151C126.405 150.72 126.973 150.58 127.613 150.58C128.245 150.58 128.809 150.72 129.305 151C129.809 151.272 130.201 151.652 130.481 152.14C130.769 152.62 130.913 153.18 130.913 153.82C130.913 154.452 130.769 155.012 130.481 155.5C130.201 155.988 129.809 156.372 129.305 156.652C128.809 156.932 128.245 157.072 127.613 157.072ZM127.613 156.064C128.021 156.064 128.385 155.972 128.705 155.788C129.033 155.604 129.289 155.344 129.473 155.008C129.657 154.664 129.749 154.268 129.749 153.82C129.749 153.364 129.657 152.972 129.473 152.644C129.289 152.308 129.033 152.048 128.705 151.864C128.385 151.68 128.021 151.588 127.613 151.588C127.205 151.588 126.841 151.68 126.521 151.864C126.201 152.048 125.945 152.308 125.753 152.644C125.561 152.972 125.465 153.364 125.465 153.82C125.465 154.268 125.561 154.664 125.753 155.008C125.945 155.344 126.201 155.604 126.521 155.788C126.841 155.972 127.205 156.064 127.613 156.064ZM135.897 157V148.6H139.173C139.909 148.6 140.537 148.716 141.057 148.948C141.577 149.18 141.977 149.516 142.257 149.956C142.537 150.396 142.677 150.92 142.677 151.528C142.677 152.136 142.537 152.66 142.257 153.1C141.977 153.532 141.577 153.864 141.057 154.096C140.537 154.328 139.909 154.444 139.173 154.444H136.557L137.097 153.892V157H135.897ZM141.513 157L139.377 153.952H140.661L142.821 157H141.513ZM137.097 154.012L136.557 153.424H139.137C139.905 153.424 140.485 153.26 140.877 152.932C141.277 152.596 141.477 152.128 141.477 151.528C141.477 150.928 141.277 150.464 140.877 150.136C140.485 149.808 139.905 149.644 139.137 149.644H136.557L137.097 149.044V154.012ZM148.337 157V155.656L148.277 155.404V153.112C148.277 152.624 148.133 152.248 147.845 151.984C147.565 151.712 147.141 151.576 146.573 151.576C146.197 151.576 145.829 151.64 145.469 151.768C145.109 151.888 144.805 152.052 144.557 152.26L144.077 151.396C144.405 151.132 144.797 150.932 145.253 150.796C145.717 150.652 146.201 150.58 146.705 150.58C147.577 150.58 148.249 150.792 148.721 151.216C149.193 151.64 149.429 152.288 149.429 153.16V157H148.337ZM146.249 157.072C145.777 157.072 145.361 156.992 145.001 156.832C144.649 156.672 144.377 156.452 144.185 156.172C143.993 155.884 143.897 155.56 143.897 155.2C143.897 154.856 143.977 154.544 144.137 154.264C144.305 153.984 144.573 153.76 144.941 153.592C145.317 153.424 145.821 153.34 146.453 153.34H148.469V154.168H146.501C145.925 154.168 145.537 154.264 145.337 154.456C145.137 154.648 145.037 154.88 145.037 155.152C145.037 155.464 145.161 155.716 145.409 155.908C145.657 156.092 146.001 156.184 146.441 156.184C146.873 156.184 147.249 156.088 147.569 155.896C147.897 155.704 148.133 155.424 148.277 155.056L148.505 155.848C148.353 156.224 148.085 156.524 147.701 156.748C147.317 156.964 146.833 157.072 146.249 157.072ZM153.745 157.072C153.105 157.072 152.609 156.9 152.257 156.556C151.905 156.212 151.729 155.72 151.729 155.08V149.248H152.881V155.032C152.881 155.376 152.965 155.64 153.133 155.824C153.309 156.008 153.557 156.1 153.877 156.1C154.237 156.1 154.537 156 154.777 155.8L155.137 156.628C154.961 156.78 154.749 156.892 154.501 156.964C154.261 157.036 154.009 157.072 153.745 157.072ZM150.649 151.588V150.64H154.705V151.588H150.649ZM160.478 157V155.656L160.418 155.404V153.112C160.418 152.624 160.274 152.248 159.986 151.984C159.706 151.712 159.282 151.576 158.714 151.576C158.338 151.576 157.97 151.64 157.61 151.768C157.25 151.888 156.946 152.052 156.698 152.26L156.218 151.396C156.546 151.132 156.938 150.932 157.394 150.796C157.858 150.652 158.342 150.58 158.846 150.58C159.718 150.58 160.39 150.792 160.862 151.216C161.334 151.64 161.57 152.288 161.57 153.16V157H160.478ZM158.39 157.072C157.918 157.072 157.502 156.992 157.142 156.832C156.79 156.672 156.518 156.452 156.326 156.172C156.134 155.884 156.038 155.56 156.038 155.2C156.038 154.856 156.118 154.544 156.278 154.264C156.446 153.984 156.714 153.76 157.082 153.592C157.458 153.424 157.962 153.34 158.594 153.34H160.61V154.168H158.642C158.066 154.168 157.678 154.264 157.478 154.456C157.278 154.648 157.178 154.88 157.178 155.152C157.178 155.464 157.302 155.716 157.55 155.908C157.798 156.092 158.142 156.184 158.582 156.184C159.014 156.184 159.39 156.088 159.71 155.896C160.038 155.704 160.274 155.424 160.418 155.056L160.646 155.848C160.494 156.224 160.226 156.524 159.842 156.748C159.458 156.964 158.974 157.072 158.39 157.072ZM159.77 149.68C159.578 149.68 159.406 149.64 159.254 149.56C159.11 149.48 158.978 149.388 158.858 149.284C158.738 149.172 158.622 149.076 158.51 148.996C158.398 148.916 158.286 148.876 158.174 148.876C157.998 148.876 157.854 148.944 157.742 149.08C157.638 149.208 157.578 149.388 157.562 149.62H156.914C156.93 149.172 157.042 148.816 157.25 148.552C157.458 148.288 157.738 148.156 158.09 148.156C158.282 148.156 158.454 148.2 158.605 148.288C158.758 148.368 158.894 148.464 159.014 148.576C159.134 148.68 159.246 148.772 159.35 148.852C159.462 148.932 159.574 148.972 159.686 148.972C159.862 148.972 160.006 148.908 160.118 148.78C160.23 148.652 160.29 148.476 160.298 148.252H160.946C160.938 148.676 160.826 149.02 160.61 149.284C160.402 149.548 160.122 149.68 159.77 149.68ZM166.425 157.072C165.785 157.072 165.217 156.932 164.721 156.652C164.225 156.372 163.833 155.988 163.545 155.5C163.257 155.004 163.113 154.444 163.113 153.82C163.113 153.188 163.257 152.628 163.545 152.14C163.833 151.652 164.225 151.272 164.721 151C165.217 150.72 165.785 150.58 166.425 150.58C167.057 150.58 167.621 150.72 168.117 151C168.621 151.272 169.013 151.652 169.293 152.14C169.581 152.62 169.725 153.18 169.725 153.82C169.725 154.452 169.581 155.012 169.293 155.5C169.013 155.988 168.621 156.372 168.117 156.652C167.621 156.932 167.057 157.072 166.425 157.072ZM166.425 156.064C166.833 156.064 167.197 155.972 167.517 155.788C167.845 155.604 168.101 155.344 168.285 155.008C168.469 154.664 168.561 154.268 168.561 153.82C168.561 153.364 168.469 152.972 168.285 152.644C168.101 152.308 167.845 152.048 167.517 151.864C167.197 151.68 166.833 151.588 166.425 151.588C166.017 151.588 165.653 151.68 165.333 151.864C165.013 152.048 164.757 152.308 164.565 152.644C164.373 152.972 164.277 153.364 164.277 153.82C164.277 154.268 164.373 154.664 164.565 155.008C164.757 155.344 165.013 155.604 165.333 155.788C165.653 155.972 166.017 156.064 166.425 156.064Z" fill="#1D2027"/>
<g filter="url(#filter2_d_34_326)">
<circle cx="64.8" cy="36.8" r="10.8" fill="white"/>
<g filter="url(#filter3_d_34_326)">
<circle cx="64.8" cy="36.8" r="5.81538" fill="url(#paint2_radial_34_326)"/>
</g>
</g>
<path d="M94.1682 43V32.948H95.2182V43H94.1682ZM97.0164 39.486C97.0164 38.2073 97.2451 37.2833 97.7024 36.714C98.1597 36.1447 98.9297 35.86 100.012 35.86C101.104 35.86 101.874 36.1447 102.322 36.714C102.78 37.2833 103.008 38.2073 103.008 39.486C103.008 40.7647 102.794 41.6933 102.364 42.272C101.935 42.8507 101.151 43.14 100.012 43.14C98.8737 43.14 98.0897 42.8507 97.6604 42.272C97.2311 41.6933 97.0164 40.7647 97.0164 39.486ZM98.0944 39.472C98.0944 40.4893 98.2157 41.2033 98.4584 41.614C98.7104 42.0247 99.2284 42.23 100.012 42.23C100.806 42.23 101.324 42.0293 101.566 41.628C101.809 41.2173 101.93 40.4987 101.93 39.472C101.93 38.4453 101.795 37.7407 101.524 37.358C101.254 36.966 100.75 36.77 100.012 36.77C99.2844 36.77 98.7804 36.966 98.5004 37.358C98.2297 37.7407 98.0944 38.4453 98.0944 39.472ZM107.339 35.86C107.647 35.86 108.17 35.916 108.907 36.028L109.243 36.07L109.201 36.924C108.454 36.84 107.904 36.798 107.549 36.798C106.756 36.798 106.214 36.9893 105.925 37.372C105.645 37.7453 105.505 38.4453 105.505 39.472C105.505 40.4893 105.636 41.1987 105.897 41.6C106.168 42.0013 106.723 42.202 107.563 42.202L109.215 42.076L109.257 42.944C108.389 43.0747 107.74 43.14 107.311 43.14C106.219 43.14 105.463 42.86 105.043 42.3C104.632 41.74 104.427 40.7973 104.427 39.472C104.427 38.1373 104.651 37.204 105.099 36.672C105.547 36.1307 106.294 35.86 107.339 35.86ZM111.869 43H110.819V32.948H111.869V38.884L112.961 38.828L114.963 36H116.153L113.871 39.22L116.251 43H115.061L112.975 39.752L111.869 39.794V43ZM118.862 36.91V43H117.812V36.91H116.93V36H117.812V35.37C117.812 34.3807 117.952 33.7087 118.232 33.354C118.512 32.99 119.002 32.808 119.702 32.808L121.116 32.906L121.102 33.774C120.579 33.7553 120.145 33.746 119.8 33.746C119.464 33.746 119.221 33.858 119.072 34.082C118.932 34.306 118.862 34.74 118.862 35.384V36H120.892V36.91H118.862ZM121.495 36H122.545L124.295 42.09H124.757L126.521 36H127.571L124.659 46.108H123.609L124.519 43H123.483L121.495 36Z" fill="black"/>
<path d="M83.3333 38.2917V41.4583H81.75V43.0417H84.125V44.625H85.7083V43.0417H87.2917V44.625H88.875V43.0013C90.433 42.8042 91.6458 41.4853 91.6458 39.875C91.6458 38.83 91.1313 37.9085 90.3475 37.3314C90.9255 36.7424 91.2496 35.9502 91.25 35.125C91.25 33.6541 90.2375 32.4246 88.875 32.0708V30.375H87.2917V31.9583H85.7083V30.375H84.125V31.9583H81.75V33.5417H83.3333V38.2917ZM88.4792 41.4583H84.9167V38.2917H88.4792C89.3524 38.2917 90.0625 39.0018 90.0625 39.875C90.0625 40.7482 89.3524 41.4583 88.4792 41.4583ZM84.9167 33.5417H88.0833C88.9565 33.5417 89.6667 34.2518 89.6667 35.125C89.6667 35.9982 88.9565 36.7083 88.0833 36.7083H84.9167V33.5417Z" fill="#FFAD0D"/>
</g>
<defs>
<filter id="filter0_f_34_326" x="0" y="31" width="344" height="215" filterUnits="userSpaceOnUse" color-interpolation-filters="sRGB">
<feFlood flood-opacity="0" result="BackgroundImageFix"/>
<feBlend mode="normal" in="SourceGraphic" in2="BackgroundImageFix" result="shape"/>
<feGaussianBlur stdDeviation="28" result="effect1_foregroundBlur_34_326"/>
</filter>
<filter id="filter1_d_34_326" x="244" y="54" width="95" height="95" filterUnits="userSpaceOnUse" color-interpolation-filters="sRGB">
<feFlood flood-opacity="0" result="BackgroundImageFix"/>
<feColorMatrix in="SourceAlpha" type="matrix" values="0 0 0 0 0 0 0 0 0 0 0 0 0 0 0 0 0 0 127 0" result="hardAlpha"/>
<feOffset dy="6"/>
<feGaussianBlur stdDeviation="6"/>
<feComposite in2="hardAlpha" operator="out"/>
<feColorMatrix type="matrix" values="0 0 0 0 0.483333 0 0 0 0 0.483333 0 0 0 0 0.483333 0 0 0 0.2 0"/>
<feBlend mode="normal" in2="BackgroundImageFix" result="effect1_dropShadow_34_326"/>
<feBlend mode="normal" in="SourceGraphic" in2="effect1_dropShadow_34_326" result="shape"/>
</filter>
<filter id="filter2_d_34_326" x="44.4" y="21.2" width="40.8" height="40.8" filterUnits="userSpaceOnUse" color-interpolation-filters="sRGB">
<feFlood flood-opacity="0" result="BackgroundImageFix"/>
<feColorMatrix in="SourceAlpha" type="matrix" values="0 0 0 0 0 0 0 0 0 0 0 0 0 0 0 0 0 0 127 0" result="hardAlpha"/>
<feOffset dy="4.8"/>
<feGaussianBlur stdDeviation="4.8"/>
<feComposite in2="hardAlpha" operator="out"/>
<feColorMatrix type="matrix" values="0 0 0 0 0.0966667 0 0 0 0 0.4 0 0 0 0 0.217169 0 0 0 0.12 0"/>
<feBlend mode="normal" in2="BackgroundImageFix" result="effect1_dropShadow_34_326"/>
<feBlend mode="normal" in="SourceGraphic" in2="effect1_dropShadow_34_326" result="shape"/>
</filter>
<filter id="filter3_d_34_326" x="51.7846" y="27.3846" width="26.0307" height="26.0308" filterUnits="userSpaceOnUse" color-interpolation-filters="sRGB">
<feFlood flood-opacity="0" result="BackgroundImageFix"/>
<feColorMatrix in="SourceAlpha" type="matrix" values="0 0 0 0 0 0 0 0 0 0 0 0 0 0 0 0 0 0 127 0" result="hardAlpha"/>
<feOffset dy="3.6"/>
<feGaussianBlur stdDeviation="3.6"/>
<feComposite in2="hardAlpha" operator="out"/>
<feColorMatrix type="matrix" values="0 0 0 0 0.483333 0 0 0 0 0.483333 0 0 0 0 0.483333 0 0 0 0.2 0"/>
<feBlend mode="normal" in2="BackgroundImageFix" result="effect1_dropShadow_34_326"/>
<feBlend mode="normal" in="SourceGraphic" in2="effect1_dropShadow_34_326" result="shape"/>
</filter>
<linearGradient id="paint0_linear_34_326" x1="67" y1="31.5" x2="273" y2="173.5" gradientUnits="userSpaceOnUse">
<stop stop-color="white"/>
<stop offset="1" stop-color="#EFEFEF"/>
</linearGradient>
<radialGradient id="paint1_radial_34_326" cx="0" cy="0" r="1" gradientUnits="userSpaceOnUse" gradientTransform="translate(362.91 164.468) rotate(-137.028) scale(153.968 179.907)">
<stop stop-color="#FFB726"/>
<stop offset="1" stop-color="#FF7A00"/>
</radialGradient>
<radialGradient id="paint2_radial_34_326" cx="0" cy="0" r="1" gradientUnits="userSpaceOnUse" gradientTransform="translate(70.7775 42.74) rotate(-137.028) scale(13.0713 15.2734)">
<stop stop-color="#FFB726"/>
<stop offset="1" stop-color="#FF7A00"/>
</radialGradient>
<clipPath id="clip0_34_326">
<rect x="25" width="294" height="189" rx="20" fill="white"/>
</clipPath>
</defs>
</svg>
