<svg width="344" height="246" viewBox="0 0 344 246" fill="none" xmlns="http://www.w3.org/2000/svg">
<g opacity="0.5" filter="url(#filter0_f_34_301)">
<rect x="56" y="87" width="232" height="103" rx="20" fill="#196637"/>
</g>
<g clip-path="url(#clip0_34_301)">
<rect x="22" width="294" height="189" rx="20" fill="url(#paint0_linear_34_301)"/>
<circle cx="289.5" cy="94.5" r="68.5" fill="white"/>
<g filter="url(#filter1_d_34_301)">
<circle cx="288.5" cy="95.5" r="35.5" fill="url(#paint1_radial_34_301)"/>
</g>
<path fill-rule="evenodd" clip-rule="evenodd" d="M232.189 190C239.81 170.817 244 149.898 244 128C244 76.1674 220.527 29.8174 183.631 -1H-14C-25.0457 -1 -34 7.95431 -34 19V170C-34 181.046 -25.0457 190 -14 190H232.189Z" fill="white" fill-opacity="0.08"/>
<path fill-rule="evenodd" clip-rule="evenodd" d="M201.44 190C207.631 172.484 211 153.636 211 134C211 78.6839 184.266 29.6119 143.013 -1L-26 -1C-37.0457 -1 -46 7.95431 -46 19V170C-46 181.046 -37.0457 190 -26 190H201.44Z" fill="white" fill-opacity="0.08"/>
<path d="M62.34 84L58.398 76.845H57.291V84H52.674V65.046H60.423C61.917 65.046 63.186 65.307 64.23 65.829C65.292 66.351 66.084 67.071 66.606 67.989C67.128 68.889 67.389 69.897 67.389 71.013C67.389 72.273 67.029 73.398 66.309 74.388C65.607 75.378 64.563 76.08 63.177 76.494L67.551 84H62.34ZM57.291 73.578H60.153C60.999 73.578 61.629 73.371 62.043 72.957C62.475 72.543 62.691 71.958 62.691 71.202C62.691 70.482 62.475 69.915 62.043 69.501C61.629 69.087 60.999 68.88 60.153 68.88H57.291V73.578ZM84.6243 78.492C84.6243 79.482 84.3633 80.4 83.8413 81.246C83.3373 82.074 82.5813 82.758 81.5733 83.298C80.5833 83.82 79.4043 84.108 78.0363 84.162V86.349H76.3083V84.135C74.4003 83.973 72.8613 83.406 71.6913 82.434C70.5213 81.444 69.9003 80.103 69.8283 78.411H74.7423C74.8503 79.491 75.3723 80.184 76.3083 80.49V76.224C74.9043 75.864 73.7793 75.513 72.9333 75.171C72.1053 74.829 71.3763 74.28 70.7463 73.524C70.1163 72.768 69.8013 71.733 69.8013 70.419C69.8013 68.781 70.4043 67.467 71.6103 66.477C72.8343 65.487 74.4003 64.929 76.3083 64.803V62.616H78.0363V64.803C79.9263 64.947 81.4203 65.496 82.5183 66.45C83.6163 67.404 84.2283 68.727 84.3543 70.419H79.4133C79.3053 69.447 78.8463 68.817 78.0363 68.529V72.714C79.5303 73.128 80.6823 73.497 81.4923 73.821C82.3023 74.145 83.0223 74.685 83.6523 75.441C84.3003 76.179 84.6243 77.196 84.6243 78.492ZM74.6883 70.203C74.6883 70.653 74.8233 71.031 75.0933 71.337C75.3813 71.643 75.7863 71.913 76.3083 72.147V68.394C75.8043 68.484 75.4083 68.682 75.1203 68.988C74.8323 69.276 74.6883 69.681 74.6883 70.203ZM78.0363 80.571C78.5763 80.481 78.9993 80.265 79.3053 79.923C79.6293 79.581 79.7913 79.158 79.7913 78.654C79.7913 78.186 79.6383 77.808 79.3323 77.52C79.0443 77.214 78.6123 76.953 78.0363 76.737V80.571ZM96.5614 73.416C94.8694 72.516 94.0234 71.103 94.0234 69.177C94.0234 68.205 94.2754 67.323 94.7794 66.531C95.2834 65.721 96.0484 65.082 97.0744 64.614C98.1004 64.128 99.3604 63.885 100.854 63.885C102.348 63.885 103.599 64.128 104.607 64.614C105.633 65.082 106.398 65.721 106.902 66.531C107.406 67.323 107.658 68.205 107.658 69.177C107.658 70.149 107.424 70.995 106.956 71.715C106.506 72.435 105.894 73.002 105.12 73.416C106.092 73.884 106.839 74.532 107.361 75.36C107.883 76.17 108.144 77.124 108.144 78.222C108.144 79.5 107.82 80.607 107.172 81.543C106.524 82.461 105.642 83.163 104.526 83.649C103.428 84.135 102.204 84.378 100.854 84.378C99.5044 84.378 98.2714 84.135 97.1554 83.649C96.0574 83.163 95.1844 82.461 94.5364 81.543C93.8884 80.607 93.5644 79.5 93.5644 78.222C93.5644 77.106 93.8254 76.143 94.3474 75.333C94.8694 74.505 95.6074 73.866 96.5614 73.416ZM103.176 69.879C103.176 69.141 102.96 68.574 102.528 68.178C102.114 67.764 101.556 67.557 100.854 67.557C100.152 67.557 99.5854 67.764 99.1534 68.178C98.7394 68.592 98.5324 69.168 98.5324 69.906C98.5324 70.608 98.7484 71.166 99.1804 71.58C99.6124 71.976 100.17 72.174 100.854 72.174C101.538 72.174 102.096 71.967 102.528 71.553C102.96 71.139 103.176 70.581 103.176 69.879ZM100.854 75.414C100.008 75.414 99.3244 75.648 98.8024 76.116C98.2804 76.566 98.0194 77.196 98.0194 78.006C98.0194 78.762 98.2714 79.383 98.7754 79.869C99.2974 80.355 99.9904 80.598 100.854 80.598C101.718 80.598 102.393 80.355 102.879 79.869C103.383 79.383 103.635 78.762 103.635 78.006C103.635 77.214 103.374 76.584 102.852 76.116C102.348 75.648 101.682 75.414 100.854 75.414ZM116.256 79.734L113.259 87.483H110.316L111.882 79.734H116.256ZM132.459 68.313H124.035V72.039C124.395 71.643 124.899 71.319 125.547 71.067C126.195 70.815 126.897 70.689 127.653 70.689C129.003 70.689 130.119 70.995 131.001 71.607C131.901 72.219 132.558 73.011 132.972 73.983C133.386 74.955 133.593 76.008 133.593 77.142C133.593 79.248 132.999 80.922 131.811 82.164C130.623 83.388 128.949 84 126.789 84C125.349 84 124.098 83.757 123.036 83.271C121.974 82.767 121.155 82.074 120.579 81.192C120.003 80.31 119.688 79.293 119.634 78.141H124.143C124.251 78.699 124.512 79.167 124.926 79.545C125.34 79.905 125.907 80.085 126.627 80.085C127.473 80.085 128.103 79.815 128.517 79.275C128.931 78.735 129.138 78.015 129.138 77.115C129.138 76.233 128.922 75.558 128.49 75.09C128.058 74.622 127.428 74.388 126.6 74.388C125.988 74.388 125.484 74.541 125.088 74.847C124.692 75.135 124.431 75.522 124.305 76.008H119.85V64.263H132.459V68.313ZM136.25 80.49V76.764L144.782 64.56H149.939V76.494H152.153V80.49H149.939V84H145.322V80.49H136.25ZM145.646 69.636L141.11 76.494H145.646V69.636ZM154.414 73.875C154.414 70.779 155.008 68.34 156.196 66.558C157.402 64.776 159.337 63.885 162.001 63.885C164.665 63.885 166.591 64.776 167.779 66.558C168.985 68.34 169.588 70.779 169.588 73.875C169.588 77.007 168.985 79.464 167.779 81.246C166.591 83.028 164.665 83.919 162.001 83.919C159.337 83.919 157.402 83.028 156.196 81.246C155.008 79.464 154.414 77.007 154.414 73.875ZM165.052 73.875C165.052 72.057 164.854 70.662 164.458 69.69C164.062 68.7 163.243 68.205 162.001 68.205C160.759 68.205 159.94 68.7 159.544 69.69C159.148 70.662 158.95 72.057 158.95 73.875C158.95 75.099 159.022 76.116 159.166 76.926C159.31 77.718 159.598 78.366 160.03 78.87C160.48 79.356 161.137 79.599 162.001 79.599C162.865 79.599 163.513 79.356 163.945 78.87C164.395 78.366 164.692 77.718 164.836 76.926C164.98 76.116 165.052 75.099 165.052 73.875ZM174.647 84.216C173.837 84.216 173.171 83.982 172.649 83.514C172.145 83.028 171.893 82.434 171.893 81.732C171.893 81.012 172.145 80.409 172.649 79.923C173.171 79.437 173.837 79.194 174.647 79.194C175.439 79.194 176.087 79.437 176.591 79.923C177.113 80.409 177.374 81.012 177.374 81.732C177.374 82.434 177.113 83.028 176.591 83.514C176.087 83.982 175.439 84.216 174.647 84.216ZM179.486 80.301C180.098 79.815 180.377 79.59 180.323 79.626C182.087 78.168 183.473 76.971 184.481 76.035C185.507 75.099 186.371 74.118 187.073 73.092C187.775 72.066 188.126 71.067 188.126 70.095C188.126 69.357 187.955 68.781 187.613 68.367C187.271 67.953 186.758 67.746 186.074 67.746C185.39 67.746 184.85 68.007 184.454 68.529C184.076 69.033 183.887 69.753 183.887 70.689H179.432C179.468 69.159 179.792 67.881 180.404 66.855C181.034 65.829 181.853 65.073 182.861 64.587C183.887 64.101 185.021 63.858 186.263 63.858C188.405 63.858 190.016 64.407 191.096 65.505C192.194 66.603 192.743 68.034 192.743 69.798C192.743 71.724 192.086 73.515 190.772 75.171C189.458 76.809 187.784 78.411 185.75 79.977H193.04V83.73H179.486V80.301ZM194.586 68.583V64.29H202.065V84H197.259V68.583H194.586Z" fill="white"/>
<path d="M53.656 134V123.44L54.344 124.192H51.128V122.8H55.24V134H53.656ZM57.5139 134V132.912L62.0739 128.512C62.4792 128.128 62.7779 127.792 62.9699 127.504C63.1725 127.205 63.3059 126.933 63.3699 126.688C63.4445 126.432 63.4819 126.187 63.4819 125.952C63.4819 125.376 63.2792 124.923 62.8739 124.592C62.4685 124.261 61.8765 124.096 61.0979 124.096C60.5005 124.096 59.9619 124.197 59.4819 124.4C59.0019 124.592 58.5859 124.896 58.2339 125.312L57.1459 124.368C57.5725 123.824 58.1432 123.408 58.8579 123.12C59.5832 122.821 60.3779 122.672 61.2419 122.672C62.0205 122.672 62.6979 122.8 63.2739 123.056C63.8499 123.301 64.2925 123.659 64.6019 124.128C64.9219 124.597 65.0819 125.152 65.0819 125.792C65.0819 126.155 65.0339 126.512 64.9379 126.864C64.8419 127.216 64.6605 127.589 64.3939 127.984C64.1272 128.379 63.7432 128.821 63.2419 129.312L59.1779 133.232L58.7939 132.608H65.5619V134H57.5139ZM68.7654 134V123.44L69.4534 124.192H66.2374V122.8H70.3494V134H68.7654ZM76.2233 134.128C75.4339 134.128 74.6659 134.005 73.9193 133.76C73.1833 133.515 72.5806 133.184 72.1113 132.768L72.8473 131.504C73.2206 131.856 73.7059 132.144 74.3033 132.368C74.9006 132.592 75.5406 132.704 76.2233 132.704C77.0553 132.704 77.7006 132.528 78.1593 132.176C78.6286 131.813 78.8633 131.328 78.8633 130.72C78.8633 130.133 78.6393 129.664 78.1913 129.312C77.7539 128.949 77.0553 128.768 76.0953 128.768H75.1993V127.648L78.5273 123.552L78.7513 124.192H72.6233V122.8H80.0153V123.888L76.7033 127.968L75.8713 127.472H76.3993C77.7539 127.472 78.7673 127.776 79.4393 128.384C80.1219 128.992 80.4633 129.765 80.4633 130.704C80.4633 131.333 80.3086 131.909 79.9993 132.432C79.6899 132.955 79.2206 133.371 78.5913 133.68C77.9726 133.979 77.1833 134.128 76.2233 134.128ZM89.6764 134.128C88.887 134.128 88.119 134.005 87.3724 133.76C86.6364 133.515 86.0337 133.184 85.5644 132.768L86.3004 131.504C86.6737 131.856 87.159 132.144 87.7564 132.368C88.3537 132.592 88.9937 132.704 89.6764 132.704C90.5084 132.704 91.1537 132.528 91.6124 132.176C92.0817 131.813 92.3164 131.328 92.3164 130.72C92.3164 130.133 92.0924 129.664 91.6444 129.312C91.207 128.949 90.5084 128.768 89.5484 128.768H88.6524V127.648L91.9804 123.552L92.2044 124.192H86.0764V122.8H93.4684V123.888L90.1564 127.968L89.3244 127.472H89.8524C91.207 127.472 92.2204 127.776 92.8924 128.384C93.575 128.992 93.9164 129.765 93.9164 130.704C93.9164 131.333 93.7617 131.909 93.4524 132.432C93.143 132.955 92.6737 133.371 92.0444 133.68C91.4257 133.979 90.6364 134.128 89.6764 134.128ZM99.7766 134.128C98.87 134.128 98.086 133.995 97.4246 133.728C96.7633 133.461 96.2513 133.083 95.8886 132.592C95.526 132.091 95.3446 131.504 95.3446 130.832C95.3446 130.171 95.5153 129.611 95.8566 129.152C96.2086 128.683 96.7153 128.331 97.3766 128.096C98.038 127.851 98.838 127.728 99.7766 127.728C100.715 127.728 101.515 127.851 102.177 128.096C102.849 128.331 103.361 128.683 103.713 129.152C104.065 129.621 104.241 130.181 104.241 130.832C104.241 131.504 104.059 132.091 103.697 132.592C103.334 133.083 102.817 133.461 102.145 133.728C101.473 133.995 100.683 134.128 99.7766 134.128ZM99.7766 132.832C100.673 132.832 101.371 132.651 101.873 132.288C102.385 131.915 102.641 131.413 102.641 130.784C102.641 130.165 102.385 129.68 101.873 129.328C101.371 128.965 100.673 128.784 99.7766 128.784C98.8913 128.784 98.198 128.965 97.6966 129.328C97.1953 129.68 96.9446 130.165 96.9446 130.784C96.9446 131.413 97.1953 131.915 97.6966 132.288C98.198 132.651 98.8913 132.832 99.7766 132.832ZM99.7766 128.592C98.9233 128.592 98.198 128.48 97.6006 128.256C97.0033 128.021 96.5446 127.691 96.2246 127.264C95.9046 126.827 95.7446 126.309 95.7446 125.712C95.7446 125.083 95.91 124.544 96.2406 124.096C96.582 123.637 97.0566 123.285 97.6646 123.04C98.2726 122.795 98.9766 122.672 99.7766 122.672C100.587 122.672 101.297 122.795 101.905 123.04C102.513 123.285 102.987 123.637 103.329 124.096C103.67 124.544 103.841 125.083 103.841 125.712C103.841 126.309 103.681 126.827 103.361 127.264C103.041 127.691 102.577 128.021 101.969 128.256C101.361 128.48 100.63 128.592 99.7766 128.592ZM99.7766 127.568C100.555 127.568 101.163 127.408 101.601 127.088C102.049 126.768 102.273 126.331 102.273 125.776C102.273 125.211 102.043 124.768 101.585 124.448C101.126 124.128 100.523 123.968 99.7766 123.968C99.03 123.968 98.4326 124.128 97.9846 124.448C97.5473 124.768 97.3286 125.211 97.3286 125.776C97.3286 126.331 97.542 126.768 97.9686 127.088C98.406 127.408 99.0086 127.568 99.7766 127.568ZM105.53 134V132.912L110.09 128.512C110.495 128.128 110.794 127.792 110.986 127.504C111.188 127.205 111.322 126.933 111.386 126.688C111.46 126.432 111.498 126.187 111.498 125.952C111.498 125.376 111.295 124.923 110.89 124.592C110.484 124.261 109.892 124.096 109.114 124.096C108.516 124.096 107.978 124.197 107.498 124.4C107.018 124.592 106.602 124.896 106.25 125.312L105.162 124.368C105.588 123.824 106.159 123.408 106.874 123.12C107.599 122.821 108.394 122.672 109.258 122.672C110.036 122.672 110.714 122.8 111.29 123.056C111.866 123.301 112.308 123.659 112.618 124.128C112.938 124.597 113.098 125.152 113.098 125.792C113.098 126.155 113.05 126.512 112.954 126.864C112.858 127.216 112.676 127.589 112.41 127.984C112.143 128.379 111.759 128.821 111.258 129.312L107.194 133.232L106.81 132.608H113.578V134H105.53ZM118.317 134.128C117.528 134.128 116.76 134.005 116.013 133.76C115.277 133.515 114.674 133.184 114.205 132.768L114.941 131.504C115.314 131.856 115.8 132.144 116.397 132.368C116.994 132.592 117.634 132.704 118.317 132.704C119.149 132.704 119.794 132.528 120.253 132.176C120.722 131.813 120.957 131.328 120.957 130.72C120.957 130.133 120.733 129.664 120.285 129.312C119.848 128.949 119.149 128.768 118.189 128.768H117.293V127.648L120.621 123.552L120.845 124.192H114.717V122.8H122.109V123.888L118.797 127.968L117.965 127.472H118.493C119.848 127.472 120.861 127.776 121.533 128.384C122.216 128.992 122.557 129.765 122.557 130.704C122.557 131.333 122.402 131.909 122.093 132.432C121.784 132.955 121.314 133.371 120.685 133.68C120.066 133.979 119.277 134.128 118.317 134.128ZM131.978 122.672C132.991 122.672 133.845 122.891 134.538 123.328C135.242 123.765 135.775 124.4 136.138 125.232C136.501 126.053 136.682 127.061 136.682 128.256C136.682 129.525 136.458 130.597 136.01 131.472C135.562 132.347 134.943 133.008 134.154 133.456C133.365 133.904 132.442 134.128 131.386 134.128C130.863 134.128 130.357 134.075 129.866 133.968C129.386 133.861 128.965 133.696 128.602 133.472L129.21 132.224C129.509 132.416 129.839 132.555 130.202 132.64C130.575 132.715 130.965 132.752 131.37 132.752C132.501 132.752 133.402 132.4 134.074 131.696C134.746 130.981 135.082 129.925 135.082 128.528C135.082 128.304 135.071 128.037 135.05 127.728C135.029 127.419 134.981 127.115 134.906 126.816L135.434 127.36C135.285 127.851 135.034 128.267 134.682 128.608C134.341 128.939 133.925 129.189 133.434 129.36C132.954 129.52 132.426 129.6 131.85 129.6C131.114 129.6 130.458 129.461 129.882 129.184C129.306 128.907 128.853 128.517 128.522 128.016C128.191 127.504 128.026 126.901 128.026 126.208C128.026 125.483 128.197 124.859 128.538 124.336C128.89 123.803 129.365 123.392 129.962 123.104C130.57 122.816 131.242 122.672 131.978 122.672ZM132.042 123.968C131.562 123.968 131.135 124.059 130.762 124.24C130.389 124.421 130.095 124.672 129.882 124.992C129.679 125.312 129.578 125.696 129.578 126.144C129.578 126.805 129.807 127.333 130.266 127.728C130.725 128.112 131.343 128.304 132.122 128.304C132.634 128.304 133.082 128.208 133.466 128.016C133.861 127.824 134.165 127.563 134.378 127.232C134.602 126.901 134.714 126.533 134.714 126.128C134.714 125.733 134.613 125.376 134.41 125.056C134.207 124.736 133.909 124.475 133.514 124.272C133.119 124.069 132.629 123.968 132.042 123.968ZM138.045 134V132.912L142.605 128.512C143.01 128.128 143.309 127.792 143.501 127.504C143.704 127.205 143.837 126.933 143.901 126.688C143.976 126.432 144.013 126.187 144.013 125.952C144.013 125.376 143.81 124.923 143.405 124.592C143 124.261 142.408 124.096 141.629 124.096C141.032 124.096 140.493 124.197 140.013 124.4C139.533 124.592 139.117 124.896 138.765 125.312L137.677 124.368C138.104 123.824 138.674 123.408 139.389 123.12C140.114 122.821 140.909 122.672 141.773 122.672C142.552 122.672 143.229 122.8 143.805 123.056C144.381 123.301 144.824 123.659 145.133 124.128C145.453 124.597 145.613 125.152 145.613 125.792C145.613 126.155 145.565 126.512 145.469 126.864C145.373 127.216 145.192 127.589 144.925 127.984C144.658 128.379 144.274 128.821 143.773 129.312L139.709 133.232L139.325 132.608H146.093V134H138.045ZM151.041 122.672C152.054 122.672 152.907 122.891 153.601 123.328C154.305 123.765 154.838 124.4 155.201 125.232C155.563 126.053 155.745 127.061 155.745 128.256C155.745 129.525 155.521 130.597 155.073 131.472C154.625 132.347 154.006 133.008 153.217 133.456C152.427 133.904 151.505 134.128 150.449 134.128C149.926 134.128 149.419 134.075 148.929 133.968C148.449 133.861 148.027 133.696 147.665 133.472L148.273 132.224C148.571 132.416 148.902 132.555 149.265 132.64C149.638 132.715 150.027 132.752 150.433 132.752C151.563 132.752 152.465 132.4 153.137 131.696C153.809 130.981 154.145 129.925 154.145 128.528C154.145 128.304 154.134 128.037 154.113 127.728C154.091 127.419 154.043 127.115 153.969 126.816L154.497 127.36C154.347 127.851 154.097 128.267 153.745 128.608C153.403 128.939 152.987 129.189 152.497 129.36C152.017 129.52 151.489 129.6 150.913 129.6C150.177 129.6 149.521 129.461 148.945 129.184C148.369 128.907 147.915 128.517 147.585 128.016C147.254 127.504 147.089 126.901 147.089 126.208C147.089 125.483 147.259 124.859 147.601 124.336C147.953 123.803 148.427 123.392 149.025 123.104C149.633 122.816 150.305 122.672 151.041 122.672ZM151.105 123.968C150.625 123.968 150.198 124.059 149.825 124.24C149.451 124.421 149.158 124.672 148.945 124.992C148.742 125.312 148.641 125.696 148.641 126.144C148.641 126.805 148.87 127.333 149.329 127.728C149.787 128.112 150.406 128.304 151.185 128.304C151.697 128.304 152.145 128.208 152.529 128.016C152.923 127.824 153.227 127.563 153.441 127.232C153.665 126.901 153.777 126.533 153.777 126.128C153.777 125.733 153.675 125.376 153.473 125.056C153.27 124.736 152.971 124.475 152.577 124.272C152.182 124.069 151.691 123.968 151.105 123.968ZM160.551 134.128C159.762 134.128 158.994 134.005 158.247 133.76C157.511 133.515 156.909 133.184 156.439 132.768L157.175 131.504C157.549 131.856 158.034 132.144 158.631 132.368C159.229 132.592 159.869 132.704 160.551 132.704C161.383 132.704 162.029 132.528 162.487 132.176C162.957 131.813 163.191 131.328 163.191 130.72C163.191 130.133 162.967 129.664 162.519 129.312C162.082 128.949 161.383 128.768 160.423 128.768H159.527V127.648L162.855 123.552L163.079 124.192H156.951V122.8H164.343V123.888L161.031 127.968L160.199 127.472H160.727C162.082 127.472 163.095 127.776 163.767 128.384C164.45 128.992 164.791 129.765 164.791 130.704C164.791 131.333 164.637 131.909 164.327 132.432C164.018 132.955 163.549 133.371 162.919 133.68C162.301 133.979 161.511 134.128 160.551 134.128ZM174.213 122.672C175.226 122.672 176.079 122.891 176.773 123.328C177.477 123.765 178.01 124.4 178.373 125.232C178.735 126.053 178.917 127.061 178.917 128.256C178.917 129.525 178.693 130.597 178.245 131.472C177.797 132.347 177.178 133.008 176.389 133.456C175.599 133.904 174.677 134.128 173.621 134.128C173.098 134.128 172.591 134.075 172.101 133.968C171.621 133.861 171.199 133.696 170.837 133.472L171.445 132.224C171.743 132.416 172.074 132.555 172.437 132.64C172.81 132.715 173.199 132.752 173.605 132.752C174.735 132.752 175.637 132.4 176.309 131.696C176.981 130.981 177.317 129.925 177.317 128.528C177.317 128.304 177.306 128.037 177.285 127.728C177.263 127.419 177.215 127.115 177.141 126.816L177.669 127.36C177.519 127.851 177.269 128.267 176.917 128.608C176.575 128.939 176.159 129.189 175.669 129.36C175.189 129.52 174.661 129.6 174.085 129.6C173.349 129.6 172.693 129.461 172.117 129.184C171.541 128.907 171.087 128.517 170.757 128.016C170.426 127.504 170.261 126.901 170.261 126.208C170.261 125.483 170.431 124.859 170.773 124.336C171.125 123.803 171.599 123.392 172.197 123.104C172.805 122.816 173.477 122.672 174.213 122.672ZM174.277 123.968C173.797 123.968 173.37 124.059 172.997 124.24C172.623 124.421 172.33 124.672 172.117 124.992C171.914 125.312 171.812 125.696 171.812 126.144C171.812 126.805 172.042 127.333 172.501 127.728C172.959 128.112 173.578 128.304 174.357 128.304C174.869 128.304 175.317 128.208 175.701 128.016C176.095 127.824 176.399 127.563 176.613 127.232C176.837 126.901 176.949 126.533 176.949 126.128C176.949 125.733 176.847 125.376 176.645 125.056C176.442 124.736 176.143 124.475 175.749 124.272C175.354 124.069 174.863 123.968 174.277 123.968ZM182.344 134V123.44L183.032 124.192H179.816V122.8H183.928V134H182.344ZM189.801 134.128C189.012 134.128 188.244 134.005 187.497 133.76C186.761 133.515 186.159 133.184 185.689 132.768L186.425 131.504C186.799 131.856 187.284 132.144 187.881 132.368C188.479 132.592 189.119 132.704 189.801 132.704C190.633 132.704 191.279 132.528 191.737 132.176C192.207 131.813 192.441 131.328 192.441 130.72C192.441 130.133 192.217 129.664 191.769 129.312C191.332 128.949 190.633 128.768 189.673 128.768H188.777V127.648L192.105 123.552L192.329 124.192H186.201V122.8H193.593V123.888L190.281 127.968L189.449 127.472H189.977C191.332 127.472 192.345 127.776 193.017 128.384C193.7 128.992 194.041 129.765 194.041 130.704C194.041 131.333 193.887 131.909 193.577 132.432C193.268 132.955 192.799 133.371 192.169 133.68C191.551 133.979 190.761 134.128 189.801 134.128ZM197.282 134L202.034 123.472L202.45 124.192H195.794L196.594 123.408V126.192H195.058V122.8H203.506V123.888L198.978 134H197.282Z" fill="white"/>
<path d="M54.192 157L51.384 148.6H52.62L55.2 156.352H54.576L57.252 148.6H58.356L60.972 156.352H60.372L62.988 148.6H64.128L61.32 157H60.06L57.612 149.812H57.936L55.476 157H54.192ZM65.4279 157V150.64H66.5799V157H65.4279ZM66.0039 149.416C65.7799 149.416 65.5919 149.344 65.4399 149.2C65.2959 149.056 65.2239 148.88 65.2239 148.672C65.2239 148.456 65.2959 148.276 65.4399 148.132C65.5919 147.988 65.7799 147.916 66.0039 147.916C66.2279 147.916 66.4119 147.988 66.5559 148.132C66.7079 148.268 66.7839 148.44 66.7839 148.648C66.7839 148.864 66.7119 149.048 66.5679 149.2C66.4239 149.344 66.2359 149.416 66.0039 149.416ZM68.7795 157V148.096H69.9315V157H68.7795ZM72.1311 157V148.096H73.2831V157H72.1311ZM75.4826 157V150.64H76.6346V157H75.4826ZM76.0586 149.416C75.8346 149.416 75.6466 149.344 75.4946 149.2C75.3506 149.056 75.2786 148.88 75.2786 148.672C75.2786 148.456 75.3506 148.276 75.4946 148.132C75.6466 147.988 75.8346 147.916 76.0586 147.916C76.2826 147.916 76.4666 147.988 76.6106 148.132C76.7626 148.268 76.8386 148.44 76.8386 148.648C76.8386 148.864 76.7666 149.048 76.6226 149.2C76.4786 149.344 76.2906 149.416 76.0586 149.416ZM82.7822 157V155.656L82.7222 155.404V153.112C82.7222 152.624 82.5782 152.248 82.2902 151.984C82.0102 151.712 81.5862 151.576 81.0182 151.576C80.6422 151.576 80.2742 151.64 79.9142 151.768C79.5542 151.888 79.2502 152.052 79.0022 152.26L78.5222 151.396C78.8502 151.132 79.2422 150.932 79.6982 150.796C80.1622 150.652 80.6462 150.58 81.1502 150.58C82.0222 150.58 82.6942 150.792 83.1662 151.216C83.6382 151.64 83.8742 152.288 83.8742 153.16V157H82.7822ZM80.6942 157.072C80.2222 157.072 79.8062 156.992 79.4462 156.832C79.0942 156.672 78.8222 156.452 78.6302 156.172C78.4382 155.884 78.3422 155.56 78.3422 155.2C78.3422 154.856 78.4222 154.544 78.5822 154.264C78.7502 153.984 79.0182 153.76 79.3862 153.592C79.7622 153.424 80.2662 153.34 80.8982 153.34H82.9142V154.168H80.9462C80.3702 154.168 79.9822 154.264 79.7822 154.456C79.5822 154.648 79.4822 154.88 79.4822 155.152C79.4822 155.464 79.6062 155.716 79.8542 155.908C80.1022 156.092 80.4462 156.184 80.8862 156.184C81.3182 156.184 81.6942 156.088 82.0142 155.896C82.3422 155.704 82.5782 155.424 82.7222 155.056L82.9502 155.848C82.7982 156.224 82.5302 156.524 82.1462 156.748C81.7622 156.964 81.2782 157.072 80.6942 157.072ZM89.4021 150.58C89.9221 150.58 90.3781 150.68 90.7701 150.88C91.1701 151.08 91.4821 151.384 91.7061 151.792C91.9301 152.2 92.0421 152.716 92.0421 153.34V157H90.8901V153.472C90.8901 152.856 90.7381 152.392 90.4341 152.08C90.1381 151.768 89.7181 151.612 89.1741 151.612C88.7661 151.612 88.4101 151.692 88.1061 151.852C87.8021 152.012 87.5661 152.248 87.3981 152.56C87.2381 152.872 87.1581 153.26 87.1581 153.724V157H86.0061V150.64H87.1101V152.356L86.9301 151.9C87.1381 151.484 87.4581 151.16 87.8901 150.928C88.3221 150.696 88.8261 150.58 89.4021 150.58ZM97.5647 157V148.6H100.841C101.577 148.6 102.205 148.716 102.725 148.948C103.245 149.18 103.645 149.516 103.925 149.956C104.205 150.396 104.345 150.92 104.345 151.528C104.345 152.136 104.205 152.66 103.925 153.1C103.645 153.532 103.245 153.864 102.725 154.096C102.205 154.328 101.577 154.444 100.841 154.444H98.2247L98.7647 153.892V157H97.5647ZM103.181 157L101.045 153.952H102.329L104.489 157H103.181ZM98.7647 154.012L98.2247 153.424H100.805C101.573 153.424 102.153 153.26 102.545 152.932C102.945 152.596 103.145 152.128 103.145 151.528C103.145 150.928 102.945 150.464 102.545 150.136C102.153 149.808 101.573 149.644 100.805 149.644H98.2247L98.7647 149.044V154.012ZM106.115 157V150.64H107.267V157H106.115ZM106.691 149.416C106.467 149.416 106.279 149.344 106.127 149.2C105.983 149.056 105.911 148.88 105.911 148.672C105.911 148.456 105.983 148.276 106.127 148.132C106.279 147.988 106.467 147.916 106.691 147.916C106.915 147.916 107.099 147.988 107.243 148.132C107.395 148.268 107.471 148.44 107.471 148.648C107.471 148.864 107.399 149.048 107.255 149.2C107.111 149.344 106.923 149.416 106.691 149.416ZM108.855 157V156.256L112.935 151.192L113.163 151.588H108.927V150.64H114.087V151.396L110.007 156.448L109.743 156.052H114.183V157H108.855ZM115.113 157V156.256L119.193 151.192L119.421 151.588H115.185V150.64H120.345V151.396L116.265 156.448L116.001 156.052H120.441V157H115.113ZM124.613 157.072C123.973 157.072 123.405 156.932 122.909 156.652C122.413 156.372 122.021 155.988 121.733 155.5C121.445 155.004 121.301 154.444 121.301 153.82C121.301 153.188 121.445 152.628 121.733 152.14C122.021 151.652 122.413 151.272 122.909 151C123.405 150.72 123.973 150.58 124.613 150.58C125.245 150.58 125.809 150.72 126.305 151C126.809 151.272 127.201 151.652 127.481 152.14C127.769 152.62 127.913 153.18 127.913 153.82C127.913 154.452 127.769 155.012 127.481 155.5C127.201 155.988 126.809 156.372 126.305 156.652C125.809 156.932 125.245 157.072 124.613 157.072ZM124.613 156.064C125.021 156.064 125.385 155.972 125.705 155.788C126.033 155.604 126.289 155.344 126.473 155.008C126.657 154.664 126.749 154.268 126.749 153.82C126.749 153.364 126.657 152.972 126.473 152.644C126.289 152.308 126.033 152.048 125.705 151.864C125.385 151.68 125.021 151.588 124.613 151.588C124.205 151.588 123.841 151.68 123.521 151.864C123.201 152.048 122.945 152.308 122.753 152.644C122.561 152.972 122.465 153.364 122.465 153.82C122.465 154.268 122.561 154.664 122.753 155.008C122.945 155.344 123.201 155.604 123.521 155.788C123.841 155.972 124.205 156.064 124.613 156.064ZM132.897 157V148.6H136.173C136.909 148.6 137.537 148.716 138.057 148.948C138.577 149.18 138.977 149.516 139.257 149.956C139.537 150.396 139.677 150.92 139.677 151.528C139.677 152.136 139.537 152.66 139.257 153.1C138.977 153.532 138.577 153.864 138.057 154.096C137.537 154.328 136.909 154.444 136.173 154.444H133.557L134.097 153.892V157H132.897ZM138.513 157L136.377 153.952H137.661L139.821 157H138.513ZM134.097 154.012L133.557 153.424H136.137C136.905 153.424 137.485 153.26 137.877 152.932C138.277 152.596 138.477 152.128 138.477 151.528C138.477 150.928 138.277 150.464 137.877 150.136C137.485 149.808 136.905 149.644 136.137 149.644H133.557L134.097 149.044V154.012ZM145.337 157V155.656L145.277 155.404V153.112C145.277 152.624 145.133 152.248 144.845 151.984C144.565 151.712 144.141 151.576 143.573 151.576C143.197 151.576 142.829 151.64 142.469 151.768C142.109 151.888 141.805 152.052 141.557 152.26L141.077 151.396C141.405 151.132 141.797 150.932 142.253 150.796C142.717 150.652 143.201 150.58 143.705 150.58C144.577 150.58 145.249 150.792 145.721 151.216C146.193 151.64 146.429 152.288 146.429 153.16V157H145.337ZM143.249 157.072C142.777 157.072 142.361 156.992 142.001 156.832C141.649 156.672 141.377 156.452 141.185 156.172C140.993 155.884 140.897 155.56 140.897 155.2C140.897 154.856 140.977 154.544 141.137 154.264C141.305 153.984 141.573 153.76 141.941 153.592C142.317 153.424 142.821 153.34 143.453 153.34H145.469V154.168H143.501C142.925 154.168 142.537 154.264 142.337 154.456C142.137 154.648 142.037 154.88 142.037 155.152C142.037 155.464 142.161 155.716 142.409 155.908C142.657 156.092 143.001 156.184 143.441 156.184C143.873 156.184 144.249 156.088 144.569 155.896C144.897 155.704 145.133 155.424 145.277 155.056L145.505 155.848C145.353 156.224 145.085 156.524 144.701 156.748C144.317 156.964 143.833 157.072 143.249 157.072ZM150.745 157.072C150.105 157.072 149.609 156.9 149.257 156.556C148.905 156.212 148.729 155.72 148.729 155.08V149.248H149.881V155.032C149.881 155.376 149.965 155.64 150.133 155.824C150.309 156.008 150.557 156.1 150.877 156.1C151.237 156.1 151.537 156 151.777 155.8L152.137 156.628C151.961 156.78 151.749 156.892 151.501 156.964C151.261 157.036 151.009 157.072 150.745 157.072ZM147.649 151.588V150.64H151.705V151.588H147.649ZM157.478 157V155.656L157.418 155.404V153.112C157.418 152.624 157.274 152.248 156.986 151.984C156.706 151.712 156.282 151.576 155.714 151.576C155.338 151.576 154.97 151.64 154.61 151.768C154.25 151.888 153.946 152.052 153.698 152.26L153.218 151.396C153.546 151.132 153.938 150.932 154.394 150.796C154.858 150.652 155.342 150.58 155.846 150.58C156.718 150.58 157.39 150.792 157.862 151.216C158.334 151.64 158.57 152.288 158.57 153.16V157H157.478ZM155.39 157.072C154.918 157.072 154.502 156.992 154.142 156.832C153.79 156.672 153.518 156.452 153.326 156.172C153.134 155.884 153.038 155.56 153.038 155.2C153.038 154.856 153.118 154.544 153.278 154.264C153.446 153.984 153.714 153.76 154.082 153.592C154.458 153.424 154.962 153.34 155.594 153.34H157.61V154.168H155.642C155.066 154.168 154.678 154.264 154.478 154.456C154.278 154.648 154.178 154.88 154.178 155.152C154.178 155.464 154.302 155.716 154.55 155.908C154.798 156.092 155.142 156.184 155.582 156.184C156.014 156.184 156.39 156.088 156.71 155.896C157.038 155.704 157.274 155.424 157.418 155.056L157.646 155.848C157.494 156.224 157.226 156.524 156.842 156.748C156.458 156.964 155.974 157.072 155.39 157.072ZM156.77 149.68C156.578 149.68 156.406 149.64 156.254 149.56C156.11 149.48 155.978 149.388 155.858 149.284C155.738 149.172 155.622 149.076 155.51 148.996C155.398 148.916 155.286 148.876 155.174 148.876C154.998 148.876 154.854 148.944 154.742 149.08C154.638 149.208 154.578 149.388 154.562 149.62H153.914C153.93 149.172 154.042 148.816 154.25 148.552C154.458 148.288 154.738 148.156 155.09 148.156C155.282 148.156 155.454 148.2 155.605 148.288C155.758 148.368 155.894 148.464 156.014 148.576C156.134 148.68 156.246 148.772 156.35 148.852C156.462 148.932 156.574 148.972 156.686 148.972C156.862 148.972 157.006 148.908 157.118 148.78C157.23 148.652 157.29 148.476 157.298 148.252H157.946C157.938 148.676 157.826 149.02 157.61 149.284C157.402 149.548 157.122 149.68 156.77 149.68ZM163.425 157.072C162.785 157.072 162.217 156.932 161.721 156.652C161.225 156.372 160.833 155.988 160.545 155.5C160.257 155.004 160.113 154.444 160.113 153.82C160.113 153.188 160.257 152.628 160.545 152.14C160.833 151.652 161.225 151.272 161.721 151C162.217 150.72 162.785 150.58 163.425 150.58C164.057 150.58 164.621 150.72 165.117 151C165.621 151.272 166.013 151.652 166.293 152.14C166.581 152.62 166.725 153.18 166.725 153.82C166.725 154.452 166.581 155.012 166.293 155.5C166.013 155.988 165.621 156.372 165.117 156.652C164.621 156.932 164.057 157.072 163.425 157.072ZM163.425 156.064C163.833 156.064 164.197 155.972 164.517 155.788C164.845 155.604 165.101 155.344 165.285 155.008C165.469 154.664 165.561 154.268 165.561 153.82C165.561 153.364 165.469 152.972 165.285 152.644C165.101 152.308 164.845 152.048 164.517 151.864C164.197 151.68 163.833 151.588 163.425 151.588C163.017 151.588 162.653 151.68 162.333 151.864C162.013 152.048 161.757 152.308 161.565 152.644C161.373 152.972 161.277 153.364 161.277 153.82C161.277 154.268 161.373 154.664 161.565 155.008C161.757 155.344 162.013 155.604 162.333 155.788C162.653 155.972 163.017 156.064 163.425 156.064Z" fill="white"/>
<g filter="url(#filter2_d_34_301)">
<circle cx="61.8" cy="36.8" r="10.8" fill="white"/>
<g filter="url(#filter3_d_34_301)">
<circle cx="61.8" cy="36.8" r="5.81538" fill="url(#paint2_radial_34_301)"/>
</g>
</g>
<path d="M94.1682 42V31.948H95.2182V42H94.1682ZM97.0164 38.486C97.0164 37.2073 97.2451 36.2833 97.7024 35.714C98.1597 35.1447 98.9297 34.86 100.012 34.86C101.104 34.86 101.874 35.1447 102.322 35.714C102.78 36.2833 103.008 37.2073 103.008 38.486C103.008 39.7647 102.794 40.6933 102.364 41.272C101.935 41.8507 101.151 42.14 100.012 42.14C98.8737 42.14 98.0897 41.8507 97.6604 41.272C97.2311 40.6933 97.0164 39.7647 97.0164 38.486ZM98.0944 38.472C98.0944 39.4893 98.2157 40.2033 98.4584 40.614C98.7104 41.0247 99.2284 41.23 100.012 41.23C100.806 41.23 101.324 41.0293 101.566 40.628C101.809 40.2173 101.93 39.4987 101.93 38.472C101.93 37.4453 101.795 36.7407 101.524 36.358C101.254 35.966 100.75 35.77 100.012 35.77C99.2844 35.77 98.7804 35.966 98.5004 36.358C98.2297 36.7407 98.0944 37.4453 98.0944 38.472ZM107.339 34.86C107.647 34.86 108.17 34.916 108.907 35.028L109.243 35.07L109.201 35.924C108.454 35.84 107.904 35.798 107.549 35.798C106.756 35.798 106.214 35.9893 105.925 36.372C105.645 36.7453 105.505 37.4453 105.505 38.472C105.505 39.4893 105.636 40.1987 105.897 40.6C106.168 41.0013 106.723 41.202 107.563 41.202L109.215 41.076L109.257 41.944C108.389 42.0747 107.74 42.14 107.311 42.14C106.219 42.14 105.463 41.86 105.043 41.3C104.632 40.74 104.427 39.7973 104.427 38.472C104.427 37.1373 104.651 36.204 105.099 35.672C105.547 35.1307 106.294 34.86 107.339 34.86ZM111.869 42H110.819V31.948H111.869V37.884L112.961 37.828L114.963 35H116.153L113.871 38.22L116.251 42H115.061L112.975 38.752L111.869 38.794V42ZM118.862 35.91V42H117.812V35.91H116.93V35H117.812V34.37C117.812 33.3807 117.952 32.7087 118.232 32.354C118.512 31.99 119.002 31.808 119.702 31.808L121.116 31.906L121.102 32.774C120.579 32.7553 120.145 32.746 119.8 32.746C119.464 32.746 119.221 32.858 119.072 33.082C118.932 33.306 118.862 33.74 118.862 34.384V35H120.892V35.91H118.862ZM121.495 35H122.545L124.295 41.09H124.757L126.521 35H127.571L124.659 45.108H123.609L124.519 42H123.483L121.495 35Z" fill="#FF7A00"/>
<path d="M83.3333 37.2917V40.4583H81.75V42.0417H84.125V43.625H85.7083V42.0417H87.2917V43.625H88.875V42.0013C90.433 41.8042 91.6458 40.4853 91.6458 38.875C91.6458 37.83 91.1313 36.9085 90.3475 36.3314C90.9255 35.7424 91.2496 34.9502 91.25 34.125C91.25 32.6541 90.2375 31.4246 88.875 31.0708V29.375H87.2917V30.9583H85.7083V29.375H84.125V30.9583H81.75V32.5417H83.3333V37.2917ZM88.4792 40.4583H84.9167V37.2917H88.4792C89.3524 37.2917 90.0625 38.0018 90.0625 38.875C90.0625 39.7482 89.3524 40.4583 88.4792 40.4583ZM84.9167 32.5417H88.0833C88.9565 32.5417 89.6667 33.2518 89.6667 34.125C89.6667 34.9982 88.9565 35.7083 88.0833 35.7083H84.9167V32.5417Z" fill="white"/>
</g>
<defs>
<filter id="filter0_f_34_301" x="0" y="31" width="344" height="215" filterUnits="userSpaceOnUse" color-interpolation-filters="sRGB">
<feFlood flood-opacity="0" result="BackgroundImageFix"/>
<feBlend mode="normal" in="SourceGraphic" in2="BackgroundImageFix" result="shape"/>
<feGaussianBlur stdDeviation="28" result="effect1_foregroundBlur_34_301"/>
</filter>
<filter id="filter1_d_34_301" x="241" y="54" width="95" height="95" filterUnits="userSpaceOnUse" color-interpolation-filters="sRGB">
<feFlood flood-opacity="0" result="BackgroundImageFix"/>
<feColorMatrix in="SourceAlpha" type="matrix" values="0 0 0 0 0 0 0 0 0 0 0 0 0 0 0 0 0 0 127 0" result="hardAlpha"/>
<feOffset dy="6"/>
<feGaussianBlur stdDeviation="6"/>
<feComposite in2="hardAlpha" operator="out"/>
<feColorMatrix type="matrix" values="0 0 0 0 0.483333 0 0 0 0 0.483333 0 0 0 0 0.483333 0 0 0 0.2 0"/>
<feBlend mode="normal" in2="BackgroundImageFix" result="effect1_dropShadow_34_301"/>
<feBlend mode="normal" in="SourceGraphic" in2="effect1_dropShadow_34_301" result="shape"/>
</filter>
<filter id="filter2_d_34_301" x="41.4" y="21.2" width="40.8" height="40.8" filterUnits="userSpaceOnUse" color-interpolation-filters="sRGB">
<feFlood flood-opacity="0" result="BackgroundImageFix"/>
<feColorMatrix in="SourceAlpha" type="matrix" values="0 0 0 0 0 0 0 0 0 0 0 0 0 0 0 0 0 0 127 0" result="hardAlpha"/>
<feOffset dy="4.8"/>
<feGaussianBlur stdDeviation="4.8"/>
<feComposite in2="hardAlpha" operator="out"/>
<feColorMatrix type="matrix" values="0 0 0 0 0.0966667 0 0 0 0 0.4 0 0 0 0 0.217169 0 0 0 0.12 0"/>
<feBlend mode="normal" in2="BackgroundImageFix" result="effect1_dropShadow_34_301"/>
<feBlend mode="normal" in="SourceGraphic" in2="effect1_dropShadow_34_301" result="shape"/>
</filter>
<filter id="filter3_d_34_301" x="48.7846" y="27.3846" width="26.0307" height="26.0308" filterUnits="userSpaceOnUse" color-interpolation-filters="sRGB">
<feFlood flood-opacity="0" result="BackgroundImageFix"/>
<feColorMatrix in="SourceAlpha" type="matrix" values="0 0 0 0 0 0 0 0 0 0 0 0 0 0 0 0 0 0 127 0" result="hardAlpha"/>
<feOffset dy="3.6"/>
<feGaussianBlur stdDeviation="3.6"/>
<feComposite in2="hardAlpha" operator="out"/>
<feColorMatrix type="matrix" values="0 0 0 0 0.483333 0 0 0 0 0.483333 0 0 0 0 0.483333 0 0 0 0.2 0"/>
<feBlend mode="normal" in2="BackgroundImageFix" result="effect1_dropShadow_34_301"/>
<feBlend mode="normal" in="SourceGraphic" in2="effect1_dropShadow_34_301" result="shape"/>
</filter>
<linearGradient id="paint0_linear_34_301" x1="561.856" y1="335.812" x2="199.467" y2="-63.6479" gradientUnits="userSpaceOnUse">
<stop stop-color="#FF7A00"/>
<stop offset="1" stop-color="#FFB726"/>
</linearGradient>
<radialGradient id="paint1_radial_34_301" cx="0" cy="0" r="1" gradientUnits="userSpaceOnUse" gradientTransform="translate(324.99 131.761) rotate(-137.028) scale(79.7936 93.2366)">
<stop stop-color="#FFAD0D"/>
<stop offset="1" stop-color="#FF7A00"/>
</radialGradient>
<radialGradient id="paint2_radial_34_301" cx="0" cy="0" r="1" gradientUnits="userSpaceOnUse" gradientTransform="translate(67.7775 42.74) rotate(-137.028) scale(13.0713 15.2734)">
<stop stop-color="#FFAD0D"/>
<stop offset="1" stop-color="#FF7A00"/>
</radialGradient>
<clipPath id="clip0_34_301">
<rect x="22" width="294" height="189" rx="20" fill="white"/>
</clipPath>
</defs>
</svg>
