<svg width="31" height="22" viewBox="0 0 31 22" fill="none" xmlns="http://www.w3.org/2000/svg">
<path d="M22.1667 3H3.5V13.6667H22.1667V3ZM12.8333 12.3333C10.62 12.3333 8.83333 10.5467 8.83333 8.33333C8.83333 6.12 10.62 4.33333 12.8333 4.33333C15.0467 4.33333 16.8333 6.12 16.8333 8.33333C16.8333 10.5467 15.0467 12.3333 12.8333 12.3333Z" fill="url(#paint0_radial_84_41)"/>
<path d="M22.1666 0.333328H3.49992C2.03325 0.333328 0.833252 1.53333 0.833252 2.99999V13.6667C0.833252 15.1333 2.03325 16.3333 3.49992 16.3333H22.1666C23.6333 16.3333 24.8333 15.1333 24.8333 13.6667V2.99999C24.8333 1.53333 23.6333 0.333328 22.1666 0.333328ZM3.49992 13.6667V2.99999H22.1666V13.6667H3.49992Z" fill="#1D2027"/>
<path d="M12.8333 4.33333C10.6199 4.33333 8.83325 6.12 8.83325 8.33333C8.83325 10.5467 10.6199 12.3333 12.8333 12.3333C15.0466 12.3333 16.8333 10.5467 16.8333 8.33333C16.8333 6.12 15.0466 4.33333 12.8333 4.33333Z" fill="#1D2027"/>
<path d="M30.1666 4.33333V19C30.1666 20.4667 28.9666 21.6667 27.4999 21.6667H4.83325C4.83325 20.3333 4.83325 20.4667 4.83325 19H27.4999V4.33333C28.9666 4.33333 28.8333 4.33333 30.1666 4.33333Z" fill="#1D2027"/>
<defs>
<radialGradient id="paint0_radial_84_41" cx="0" cy="0" r="1" gradientUnits="userSpaceOnUse" gradientTransform="translate(22.4269 13.7809) rotate(-151.971) scale(17.3892 16.8987)">
<stop stop-color="#FFB726"/>
<stop offset="1" stop-color="#FF7A00"/>
</radialGradient>
</defs>
</svg>
