<svg width="230" height="45" viewBox="0 0 230 45" fill="none" xmlns="http://www.w3.org/2000/svg">
<path d="M29.3363 32V11.896H31.4363V32H29.3363ZM35.0328 24.972C35.0328 22.4147 35.4901 20.5667 36.4048 19.428C37.3195 18.2893 38.8595 17.72 41.0248 17.72C43.2088 17.72 44.7488 18.2893 45.6448 19.428C46.5595 20.5667 47.0168 22.4147 47.0168 24.972C47.0168 27.5293 46.5875 29.3867 45.7288 30.544C44.8701 31.7013 43.3021 32.28 41.0248 32.28C38.7475 32.28 37.1795 31.7013 36.3208 30.544C35.4621 29.3867 35.0328 27.5293 35.0328 24.972ZM37.1888 24.944C37.1888 26.9787 37.4315 28.4067 37.9168 29.228C38.4208 30.0493 39.4568 30.46 41.0248 30.46C42.6115 30.46 43.6475 30.0587 44.1328 29.256C44.6181 28.4347 44.8608 26.9973 44.8608 24.944C44.8608 22.8907 44.5901 21.4813 44.0488 20.716C43.5075 19.932 42.4995 19.54 41.0248 19.54C39.5688 19.54 38.5608 19.932 38.0008 20.716C37.4595 21.4813 37.1888 22.8907 37.1888 24.944ZM55.6778 17.72C56.2938 17.72 57.3391 17.832 58.8138 18.056L59.4858 18.14L59.4018 19.848C57.9084 19.68 56.8071 19.596 56.0978 19.596C54.5111 19.596 53.4284 19.9787 52.8498 20.744C52.2898 21.4907 52.0098 22.8907 52.0098 24.944C52.0098 26.9787 52.2711 28.3973 52.7938 29.2C53.3351 30.0027 54.4458 30.404 56.1258 30.404L59.4298 30.152L59.5138 31.888C57.7778 32.1493 56.4804 32.28 55.6218 32.28C53.4378 32.28 51.9258 31.72 51.0858 30.6C50.2644 29.48 49.8538 27.5947 49.8538 24.944C49.8538 22.2747 50.3018 20.408 51.1978 19.344C52.0938 18.2613 53.5871 17.72 55.6778 17.72ZM64.7371 32H62.6371V11.896H64.7371V23.768L66.9211 23.656L70.9251 18H73.3051L68.7411 24.44L73.5011 32H71.1211L66.9491 25.504L64.7371 25.588V32ZM78.7235 19.82V32H76.6235V19.82H74.8595V18H76.6235V16.74C76.6235 14.7613 76.9035 13.4173 77.4635 12.708C78.0235 11.98 79.0035 11.616 80.4035 11.616L83.2315 11.812L83.2035 13.548C82.1582 13.5107 81.2902 13.492 80.5995 13.492C79.9275 13.492 79.4422 13.716 79.1435 14.164C78.8635 14.612 78.7235 15.48 78.7235 16.768V18H82.7835V19.82H78.7235ZM83.9891 18H86.0891L89.5891 30.18H90.5131L94.0411 18H96.1411L90.3171 38.216H88.2171L90.0371 32H87.9651L83.9891 18Z" fill="white"/>
<path d="M10.6667 23.3333V28.6667H8V31.3333H12V34H14.6667V31.3333H17.3333V34H20V31.2653C22.624 30.9333 24.6667 28.712 24.6667 26C24.6667 24.24 23.8 22.688 22.48 21.716C23.4535 20.724 23.9992 19.3899 24 18C24 15.5227 22.2947 13.452 20 12.856V10H17.3333V12.6667H14.6667V10H12V12.6667H8V15.3333H10.6667V23.3333ZM19.3333 28.6667H13.3333V23.3333H19.3333C20.804 23.3333 22 24.5293 22 26C22 27.4707 20.804 28.6667 19.3333 28.6667ZM13.3333 15.3333H18.6667C20.1373 15.3333 21.3333 16.5293 21.3333 18C21.3333 19.4707 20.1373 20.6667 18.6667 20.6667H13.3333V15.3333Z" fill="#FFAD0D"/>
</svg>
