<svg width="34" height="34" viewBox="0 0 34 34" fill="none" xmlns="http://www.w3.org/2000/svg">
<path d="M16.9999 0.333344C7.79992 0.333344 0.333252 7.80001 0.333252 17C0.333252 26.2 7.79992 33.6667 16.9999 33.6667C26.1999 33.6667 33.6666 26.2 33.6666 17C33.6666 7.80001 26.1999 0.333344 16.9999 0.333344ZM18.4666 26.6V28.6667H15.5499V26.5167C14.3166 26.2167 11.5666 25.2333 10.5166 21.5833L13.2666 20.4667C13.3666 20.8333 14.2333 23.95 17.2666 23.95C18.8166 23.95 20.5666 23.15 20.5666 21.2667C20.5666 19.6667 19.3999 18.8333 16.7666 17.8833C14.9333 17.2333 11.1833 16.1667 11.1833 12.3667C11.1833 12.2 11.1999 8.36668 15.5499 7.43334V5.33334H18.4666V7.40001C21.5333 7.93334 22.6499 10.3833 22.8999 11.1167L20.2666 12.2333C20.0833 11.65 19.2833 10 17.0999 10C15.9333 10 14.0833 10.6167 14.0833 12.3167C14.0833 13.9 15.5166 14.5 18.4833 15.4833C22.4833 16.8667 23.4999 18.9 23.4999 21.2333C23.4999 25.6167 19.3333 26.45 18.4666 26.6Z" fill="#CCCCCC"/>
</svg>
