<svg width="23" height="28" viewBox="0 0 23 28" fill="none" xmlns="http://www.w3.org/2000/svg">
<path d="M14.1666 0.666672H3.49992C2.03325 0.666672 0.833252 1.86667 0.833252 3.33334V24.6667C0.833252 26.1333 2.03325 27.3333 3.49992 27.3333H19.4999C20.9666 27.3333 22.1666 26.1333 22.1666 24.6667V8.66667L14.1666 0.666672ZM3.49992 24.6667V3.33334H12.8333V8.66667H19.4999V24.6667H3.49992ZM10.1666 23.3333H12.8333V22H14.1666C14.8999 22 15.4999 21.4 15.4999 20.6667V16.6667C15.4999 15.9333 14.8999 15.3333 14.1666 15.3333H10.1666V14H15.4999V11.3333H12.8333V10H10.1666V11.3333H8.83325C8.09992 11.3333 7.49992 11.9333 7.49992 12.6667V16.6667C7.49992 17.4 8.09992 18 8.83325 18H12.8333V19.3333H7.49992V22H10.1666V23.3333Z" fill="#1D2027"/>
</svg>
