<svg width="23" height="6" viewBox="0 0 23 6" fill="none" xmlns="http://www.w3.org/2000/svg">
<path d="M1.83325 2.99999C1.83325 2.08561 2.58554 1.33333 3.49992 1.33333C4.4143 1.33333 5.16658 2.08561 5.16658 2.99999C5.16658 3.91438 4.4143 4.66666 3.49992 4.66666C2.58554 4.66666 1.83325 3.91438 1.83325 2.99999ZM17.8333 2.99999C17.8333 2.08561 18.5855 1.33333 19.4999 1.33333C20.4143 1.33333 21.1666 2.08561 21.1666 2.99999C21.1666 3.91438 20.4143 4.66666 19.4999 4.66666C18.5855 4.66666 17.8333 3.91438 17.8333 2.99999ZM9.83325 2.99999C9.83325 2.08561 10.5855 1.33333 11.4999 1.33333C12.4143 1.33333 13.1666 2.08561 13.1666 2.99999C13.1666 3.91438 12.4143 4.66666 11.4999 4.66666C10.5855 4.66666 9.83325 3.91438 9.83325 2.99999Z" fill="url(#paint0_radial_84_16)" stroke="#1D2027" stroke-width="2"/>
<defs>
<radialGradient id="paint0_radial_84_16" cx="0" cy="0" r="1" gradientUnits="userSpaceOnUse" gradientTransform="translate(22.464 5.72379) rotate(-166.889) scale(18.012 9.32251)">
<stop stop-color="#FFB726"/>
<stop offset="1" stop-color="#FF7A00"/>
</radialGradient>
</defs>
</svg>
