<svg width="22" height="41" viewBox="0 0 22 41" fill="none" xmlns="http://www.w3.org/2000/svg">
<path fill-rule="evenodd" clip-rule="evenodd" d="M21.5385 0.463226C21.6848 0.609692 21.8008 0.783686 21.88 0.975245C21.9592 1.1668 22 1.37216 22 1.57956C22 1.78695 21.9592 1.99231 21.88 2.18387C21.8008 2.37543 21.6848 2.54942 21.5385 2.69589L3.79527 20.5004L21.5385 38.3049C21.8335 38.601 21.9992 39.0026 21.9992 39.4213C21.9992 39.84 21.8335 40.2415 21.5385 40.5376C21.2435 40.8337 20.8434 41 20.4262 41C20.009 41 19.6089 40.8337 19.3139 40.5376L0.461547 21.6167C0.315243 21.4703 0.199166 21.2963 0.119966 21.1047C0.0407662 20.9132 0 20.7078 0 20.5004C0 20.293 0.0407662 20.0877 0.119966 19.8961C0.199166 19.7045 0.315243 19.5305 0.461547 19.3841L19.3139 0.463226C19.4598 0.31639 19.6332 0.199892 19.824 0.120404C20.0149 0.0409159 20.2195 0 20.4262 0C20.6328 0 20.8374 0.0409159 21.0283 0.120404C21.2192 0.199892 21.3925 0.31639 21.5385 0.463226V0.463226Z" fill="white"/>
</svg>
